G75*
%MOIN*%
%OFA0B0*%
%FSLAX25Y25*%
%IPPOS*%
%LPD*%
%AMOC8*
5,1,8,0,0,1.08239X$1,22.5*
%
%ADD10C,0.05600*%
%ADD11OC8,0.05600*%
%ADD12C,0.06000*%
%ADD13C,0.05346*%
%ADD14C,0.00800*%
%ADD15C,0.00787*%
%ADD16C,0.00600*%
%ADD17C,0.02978*%
D10*
X0117679Y0130233D03*
D11*
X0117679Y0120233D03*
X0117679Y0110233D03*
X0117679Y0100233D03*
X0117679Y0090233D03*
X0117679Y0080233D03*
X0117679Y0070233D03*
X0117679Y0060233D03*
X0117679Y0050233D03*
X0107679Y0050233D03*
X0107679Y0060233D03*
X0107679Y0070233D03*
X0107679Y0080233D03*
X0107679Y0090233D03*
X0107679Y0100233D03*
X0107679Y0110233D03*
X0107679Y0120233D03*
X0107679Y0130233D03*
D12*
X0085345Y0128822D02*
X0079345Y0128822D01*
X0079345Y0118822D02*
X0085345Y0118822D01*
X0085345Y0108822D02*
X0079345Y0108822D01*
X0079345Y0098822D02*
X0085345Y0098822D01*
X0085345Y0088822D02*
X0079345Y0088822D01*
X0079345Y0078822D02*
X0085345Y0078822D01*
X0085345Y0068822D02*
X0079345Y0068822D01*
X0079345Y0058822D02*
X0085345Y0058822D01*
X0085345Y0048822D02*
X0079345Y0048822D01*
X0079345Y0038822D02*
X0085345Y0038822D01*
X0085345Y0028822D02*
X0079345Y0028822D01*
X0079345Y0018822D02*
X0085345Y0018822D01*
X0085345Y0008822D02*
X0079345Y0008822D01*
X0026060Y0008577D02*
X0020060Y0008577D01*
X0015478Y0008555D02*
X0009478Y0008555D01*
X0009478Y0018555D02*
X0015478Y0018555D01*
X0020060Y0018577D02*
X0026060Y0018577D01*
X0026060Y0028577D02*
X0020060Y0028577D01*
X0015478Y0028555D02*
X0009478Y0028555D01*
X0009478Y0038555D02*
X0015478Y0038555D01*
X0020060Y0038577D02*
X0026060Y0038577D01*
X0026060Y0048577D02*
X0020060Y0048577D01*
X0015478Y0048555D02*
X0009478Y0048555D01*
X0009478Y0058555D02*
X0015478Y0058555D01*
X0020060Y0058577D02*
X0026060Y0058577D01*
X0026060Y0068577D02*
X0020060Y0068577D01*
X0015478Y0068555D02*
X0009478Y0068555D01*
X0009478Y0078555D02*
X0015478Y0078555D01*
X0020060Y0078577D02*
X0026060Y0078577D01*
X0026060Y0088577D02*
X0020060Y0088577D01*
X0015478Y0088555D02*
X0009478Y0088555D01*
X0009478Y0098555D02*
X0015478Y0098555D01*
X0020060Y0098577D02*
X0026060Y0098577D01*
X0026060Y0108577D02*
X0020060Y0108577D01*
X0015478Y0108555D02*
X0009478Y0108555D01*
X0009478Y0118555D02*
X0015478Y0118555D01*
X0020060Y0118577D02*
X0026060Y0118577D01*
X0026060Y0128577D02*
X0020060Y0128577D01*
X0015478Y0128555D02*
X0009478Y0128555D01*
X0009478Y0138555D02*
X0015478Y0138555D01*
X0020060Y0138577D02*
X0026060Y0138577D01*
X0026060Y0148577D02*
X0020060Y0148577D01*
X0015478Y0148555D02*
X0009478Y0148555D01*
X0009478Y0158555D02*
X0015478Y0158555D01*
X0020060Y0158577D02*
X0026060Y0158577D01*
X0079345Y0158822D02*
X0085345Y0158822D01*
X0085345Y0148822D02*
X0079345Y0148822D01*
X0079345Y0138822D02*
X0085345Y0138822D01*
D13*
X0052182Y0134941D03*
X0052204Y0115850D03*
D14*
X0023060Y0118577D02*
X0012501Y0118577D01*
X0012478Y0118555D01*
X0012501Y0108577D02*
X0023060Y0108577D01*
X0023060Y0098577D02*
X0012501Y0098577D01*
X0012478Y0098555D01*
X0012501Y0088577D02*
X0023060Y0088577D01*
X0023060Y0078577D02*
X0012501Y0078577D01*
X0012478Y0078555D01*
X0012501Y0068577D02*
X0023060Y0068577D01*
X0023060Y0058577D02*
X0012501Y0058577D01*
X0012478Y0058555D01*
X0012501Y0048577D02*
X0023060Y0048577D01*
X0023060Y0038577D02*
X0012501Y0038577D01*
X0012478Y0038555D01*
X0012501Y0028577D02*
X0023060Y0028577D01*
X0023060Y0018577D02*
X0012501Y0018577D01*
X0012478Y0018555D01*
X0012501Y0008577D02*
X0023060Y0008577D01*
X0012501Y0008577D02*
X0012478Y0008555D01*
X0012478Y0028555D02*
X0012501Y0028577D01*
X0012478Y0048555D02*
X0012501Y0048577D01*
X0012478Y0068555D02*
X0012501Y0068577D01*
X0012478Y0088555D02*
X0012501Y0088577D01*
X0012478Y0108555D02*
X0012501Y0108577D01*
X0012478Y0128555D02*
X0012501Y0128577D01*
X0023060Y0128577D01*
X0023060Y0138577D02*
X0012501Y0138577D01*
X0012478Y0138555D01*
X0012478Y0148555D02*
X0012501Y0148577D01*
X0023060Y0148577D01*
X0023060Y0158577D02*
X0012501Y0158577D01*
X0012478Y0158555D01*
X0107679Y0050233D02*
X0109009Y0048903D01*
X0109009Y0024791D01*
X0103040Y0018822D01*
X0082345Y0018822D01*
X0082345Y0008822D02*
X0109396Y0008822D01*
X0119475Y0018901D01*
X0119475Y0048436D01*
X0117679Y0050233D01*
D15*
X0107679Y0060233D02*
X0101966Y0054520D01*
X0101966Y0042223D01*
X0088565Y0028822D01*
X0082345Y0028822D01*
X0082345Y0018822D02*
X0064396Y0036772D01*
X0064396Y0097281D01*
X0059232Y0108822D02*
X0052204Y0115850D01*
X0059232Y0108822D02*
X0082345Y0108822D01*
X0089624Y0106899D02*
X0089624Y0099398D01*
X0089048Y0098822D01*
X0082345Y0098822D01*
X0089624Y0106899D02*
X0102560Y0119835D01*
X0102560Y0125114D01*
X0107679Y0130233D01*
X0109671Y0134635D02*
X0076243Y0134635D01*
X0070339Y0128730D01*
X0067462Y0128730D01*
X0066612Y0127881D01*
X0046566Y0127881D01*
X0037157Y0118472D01*
X0037157Y0102674D01*
X0023060Y0088577D01*
X0023060Y0098577D02*
X0028036Y0098577D01*
X0034880Y0105421D01*
X0034728Y0105573D01*
X0034728Y0119529D01*
X0045660Y0130460D01*
X0063008Y0130460D01*
X0076326Y0143778D01*
X0107023Y0143778D01*
X0117679Y0133122D01*
X0117679Y0130233D01*
X0113386Y0130920D02*
X0113386Y0125450D01*
X0117679Y0121157D01*
X0117679Y0120233D01*
X0107679Y0120233D02*
X0091162Y0103717D01*
X0091162Y0090170D01*
X0089815Y0088822D01*
X0082345Y0088822D01*
X0082345Y0078822D02*
X0084218Y0078822D01*
X0092710Y0087314D01*
X0092867Y0101934D01*
X0098472Y0107540D01*
X0101172Y0110221D01*
X0107679Y0110233D01*
X0107679Y0100233D02*
X0107140Y0099695D01*
X0097924Y0099695D01*
X0094535Y0096305D01*
X0094535Y0081450D01*
X0082345Y0069259D01*
X0082345Y0068822D01*
X0082345Y0058822D02*
X0099880Y0076358D01*
X0099880Y0085881D01*
X0104232Y0090233D01*
X0107679Y0090233D01*
X0107679Y0080233D02*
X0101705Y0074259D01*
X0101705Y0068939D01*
X0090494Y0057728D01*
X0090494Y0056037D01*
X0083279Y0048822D01*
X0082345Y0048822D01*
X0082345Y0038822D02*
X0082795Y0038822D01*
X0098316Y0054343D01*
X0098316Y0060870D01*
X0107679Y0070233D01*
X0113386Y0130920D02*
X0109671Y0134635D01*
D16*
X0005655Y0015449D02*
X0005664Y0011670D01*
X0006703Y0012709D01*
X0008504Y0013455D01*
X0016453Y0013455D01*
X0017742Y0012921D01*
X0019085Y0013477D01*
X0027035Y0013477D01*
X0028836Y0012731D01*
X0030214Y0011353D01*
X0030960Y0009552D01*
X0030960Y0007602D01*
X0030214Y0005801D01*
X0029788Y0005375D01*
X0075898Y0005339D01*
X0075191Y0006047D01*
X0074445Y0007848D01*
X0074445Y0009797D01*
X0075191Y0011598D01*
X0076569Y0012977D01*
X0078370Y0013722D01*
X0086319Y0013722D01*
X0088120Y0012977D01*
X0089499Y0011598D01*
X0089696Y0011122D01*
X0108444Y0011122D01*
X0117175Y0019854D01*
X0117175Y0045533D01*
X0115732Y0045533D01*
X0112979Y0048286D01*
X0112979Y0052180D01*
X0115732Y0054933D01*
X0119625Y0054933D01*
X0121676Y0052883D01*
X0121688Y0057595D01*
X0119625Y0055533D01*
X0115732Y0055533D01*
X0112979Y0058286D01*
X0112979Y0062180D01*
X0115732Y0064933D01*
X0119625Y0064933D01*
X0121701Y0062858D01*
X0121712Y0067620D01*
X0119625Y0065533D01*
X0115732Y0065533D01*
X0112979Y0068286D01*
X0112979Y0072180D01*
X0115732Y0074933D01*
X0119625Y0074933D01*
X0121725Y0072833D01*
X0121737Y0077645D01*
X0119625Y0075533D01*
X0115732Y0075533D01*
X0112979Y0078286D01*
X0112979Y0082180D01*
X0115732Y0084933D01*
X0119625Y0084933D01*
X0121750Y0082809D01*
X0121762Y0087669D01*
X0119625Y0085533D01*
X0115732Y0085533D01*
X0112979Y0088286D01*
X0112979Y0092180D01*
X0115732Y0094933D01*
X0119625Y0094933D01*
X0121774Y0092784D01*
X0121787Y0097694D01*
X0119625Y0095533D01*
X0115732Y0095533D01*
X0112979Y0098286D01*
X0112979Y0102180D01*
X0115732Y0104933D01*
X0119625Y0104933D01*
X0121799Y0102759D01*
X0121811Y0107719D01*
X0119625Y0105533D01*
X0115732Y0105533D01*
X0112979Y0108286D01*
X0112979Y0112180D01*
X0115732Y0114933D01*
X0119625Y0114933D01*
X0121824Y0112735D01*
X0121836Y0117744D01*
X0119625Y0115533D01*
X0115732Y0115533D01*
X0112979Y0118286D01*
X0112979Y0122180D01*
X0113196Y0122397D01*
X0111092Y0124500D01*
X0111092Y0127000D01*
X0109625Y0125533D01*
X0106222Y0125533D01*
X0104854Y0124164D01*
X0104854Y0124055D01*
X0105732Y0124933D01*
X0109625Y0124933D01*
X0112379Y0122180D01*
X0112379Y0118286D01*
X0109625Y0115533D01*
X0106222Y0115533D01*
X0103208Y0112519D01*
X0103318Y0112519D01*
X0105732Y0114933D01*
X0109625Y0114933D01*
X0112379Y0112180D01*
X0112379Y0108286D01*
X0109625Y0105533D01*
X0105732Y0105533D01*
X0103333Y0107932D01*
X0102120Y0107929D01*
X0100092Y0105916D01*
X0095150Y0100974D01*
X0095141Y0100155D01*
X0095631Y0100645D01*
X0096974Y0101989D01*
X0102979Y0101989D01*
X0102979Y0102180D01*
X0105732Y0104933D01*
X0109625Y0104933D01*
X0112379Y0102180D01*
X0112379Y0098286D01*
X0109625Y0095533D01*
X0105732Y0095533D01*
X0103864Y0097401D01*
X0098875Y0097401D01*
X0096829Y0095355D01*
X0096829Y0080500D01*
X0095485Y0079156D01*
X0088713Y0072384D01*
X0089499Y0071598D01*
X0090195Y0069917D01*
X0097586Y0077308D01*
X0097586Y0086831D01*
X0101938Y0091183D01*
X0103282Y0092527D01*
X0103326Y0092527D01*
X0105732Y0094933D01*
X0109625Y0094933D01*
X0112379Y0092180D01*
X0112379Y0088286D01*
X0109625Y0085533D01*
X0105732Y0085533D01*
X0104254Y0087011D01*
X0102174Y0084931D01*
X0102174Y0077972D01*
X0102979Y0078777D01*
X0102979Y0082180D01*
X0105732Y0084933D01*
X0109625Y0084933D01*
X0112379Y0082180D01*
X0112379Y0078286D01*
X0109625Y0075533D01*
X0106222Y0075533D01*
X0103999Y0073309D01*
X0103999Y0073200D01*
X0105732Y0074933D01*
X0109625Y0074933D01*
X0112379Y0072180D01*
X0112379Y0068286D01*
X0109625Y0065533D01*
X0106222Y0065533D01*
X0100609Y0059920D01*
X0100609Y0056407D01*
X0102979Y0058777D01*
X0102979Y0062180D01*
X0105732Y0064933D01*
X0109625Y0064933D01*
X0112379Y0062180D01*
X0112379Y0058286D01*
X0109625Y0055533D01*
X0106222Y0055533D01*
X0104259Y0053570D01*
X0104259Y0052612D01*
X0105980Y0054333D01*
X0107379Y0054333D01*
X0107379Y0050533D01*
X0107979Y0050533D01*
X0111779Y0050533D01*
X0111779Y0051931D01*
X0109377Y0054333D01*
X0107979Y0054333D01*
X0107979Y0050533D01*
X0107979Y0049933D01*
X0111779Y0049933D01*
X0111779Y0048535D01*
X0109377Y0046133D01*
X0107979Y0046133D01*
X0107979Y0049933D01*
X0107379Y0049933D01*
X0107379Y0046133D01*
X0105980Y0046133D01*
X0104259Y0047854D01*
X0104259Y0041273D01*
X0102916Y0039930D01*
X0089828Y0026842D01*
X0089499Y0026047D01*
X0088120Y0024668D01*
X0086319Y0023922D01*
X0078370Y0023922D01*
X0076569Y0024668D01*
X0075191Y0026047D01*
X0074445Y0027848D01*
X0074445Y0029797D01*
X0075191Y0031598D01*
X0076569Y0032977D01*
X0078370Y0033722D01*
X0086319Y0033722D01*
X0088120Y0032977D01*
X0088798Y0032299D01*
X0099672Y0043173D01*
X0099672Y0052456D01*
X0099266Y0052049D01*
X0089156Y0041940D01*
X0089499Y0041598D01*
X0090245Y0039797D01*
X0090245Y0037848D01*
X0089499Y0036047D01*
X0088120Y0034668D01*
X0086319Y0033922D01*
X0078370Y0033922D01*
X0076569Y0034668D01*
X0075191Y0036047D01*
X0074445Y0037848D01*
X0074445Y0039797D01*
X0075191Y0041598D01*
X0076569Y0042977D01*
X0078370Y0043722D01*
X0084451Y0043722D01*
X0084651Y0043922D01*
X0078370Y0043922D01*
X0076569Y0044668D01*
X0075191Y0046047D01*
X0074445Y0047848D01*
X0074445Y0049797D01*
X0075191Y0051598D01*
X0076569Y0052977D01*
X0078370Y0053722D01*
X0084935Y0053722D01*
X0085135Y0053922D01*
X0078370Y0053922D01*
X0076569Y0054668D01*
X0075191Y0056047D01*
X0074445Y0057848D01*
X0074445Y0059797D01*
X0075191Y0061598D01*
X0076569Y0062977D01*
X0078370Y0063722D01*
X0084001Y0063722D01*
X0084201Y0063922D01*
X0078370Y0063922D01*
X0076569Y0064668D01*
X0075191Y0066047D01*
X0074445Y0067848D01*
X0074445Y0069797D01*
X0075191Y0071598D01*
X0076569Y0072977D01*
X0078370Y0073722D01*
X0083564Y0073722D01*
X0083764Y0073922D01*
X0078370Y0073922D01*
X0076569Y0074668D01*
X0075191Y0076047D01*
X0074445Y0077848D01*
X0074445Y0079797D01*
X0075191Y0081598D01*
X0076569Y0082977D01*
X0078370Y0083722D01*
X0085874Y0083722D01*
X0086074Y0083922D01*
X0078370Y0083922D01*
X0076569Y0084668D01*
X0075191Y0086047D01*
X0074445Y0087848D01*
X0074445Y0089797D01*
X0075191Y0091598D01*
X0076569Y0092977D01*
X0078370Y0093722D01*
X0086319Y0093722D01*
X0088120Y0092977D01*
X0088869Y0092228D01*
X0088869Y0095417D01*
X0088120Y0094668D01*
X0086319Y0093922D01*
X0078370Y0093922D01*
X0076569Y0094668D01*
X0075191Y0096047D01*
X0074445Y0097848D01*
X0074445Y0099797D01*
X0075191Y0101598D01*
X0076569Y0102977D01*
X0078370Y0103722D01*
X0086319Y0103722D01*
X0087330Y0103304D01*
X0087330Y0104341D01*
X0086319Y0103922D01*
X0078370Y0103922D01*
X0076569Y0104668D01*
X0075191Y0106047D01*
X0074991Y0106529D01*
X0058281Y0106529D01*
X0053411Y0111399D01*
X0053114Y0111276D01*
X0051295Y0111276D01*
X0049614Y0111973D01*
X0048327Y0113259D01*
X0047631Y0114940D01*
X0047631Y0116759D01*
X0048327Y0118440D01*
X0049614Y0119727D01*
X0051295Y0120423D01*
X0053114Y0120423D01*
X0054795Y0119727D01*
X0056081Y0118440D01*
X0056778Y0116759D01*
X0056778Y0114940D01*
X0056655Y0114643D01*
X0060182Y0111116D01*
X0074991Y0111116D01*
X0075191Y0111598D01*
X0076569Y0112977D01*
X0078370Y0113722D01*
X0086319Y0113722D01*
X0088120Y0112977D01*
X0089499Y0111598D01*
X0089962Y0110481D01*
X0100266Y0120785D01*
X0100266Y0126065D01*
X0102979Y0128777D01*
X0102979Y0132180D01*
X0103140Y0132341D01*
X0088756Y0132341D01*
X0089499Y0131598D01*
X0090245Y0129797D01*
X0090245Y0127848D01*
X0089499Y0126047D01*
X0088120Y0124668D01*
X0086319Y0123922D01*
X0078370Y0123922D01*
X0076569Y0124668D01*
X0075191Y0126047D01*
X0074445Y0127848D01*
X0074445Y0129592D01*
X0072633Y0127780D01*
X0072633Y0127780D01*
X0071289Y0126437D01*
X0068412Y0126437D01*
X0067562Y0125587D01*
X0047516Y0125587D01*
X0039451Y0117522D01*
X0039451Y0101724D01*
X0038107Y0100381D01*
X0029647Y0091920D01*
X0030214Y0091353D01*
X0030960Y0089552D01*
X0030960Y0087602D01*
X0030214Y0085801D01*
X0028836Y0084423D01*
X0027035Y0083677D01*
X0019085Y0083677D01*
X0017796Y0084211D01*
X0016453Y0083655D01*
X0008504Y0083655D01*
X0006703Y0084401D01*
X0005490Y0085614D01*
X0005500Y0081506D01*
X0006703Y0082709D01*
X0008504Y0083455D01*
X0016453Y0083455D01*
X0017742Y0082921D01*
X0019085Y0083477D01*
X0027035Y0083477D01*
X0028836Y0082731D01*
X0030214Y0081353D01*
X0030960Y0079552D01*
X0030960Y0077602D01*
X0030214Y0075801D01*
X0028836Y0074423D01*
X0027035Y0073677D01*
X0019085Y0073677D01*
X0017796Y0074211D01*
X0016453Y0073655D01*
X0008504Y0073655D01*
X0006703Y0074401D01*
X0005514Y0075590D01*
X0005523Y0071529D01*
X0006703Y0072709D01*
X0008504Y0073455D01*
X0016453Y0073455D01*
X0017742Y0072921D01*
X0019085Y0073477D01*
X0027035Y0073477D01*
X0028836Y0072731D01*
X0030214Y0071353D01*
X0030960Y0069552D01*
X0030960Y0067602D01*
X0030214Y0065801D01*
X0028836Y0064423D01*
X0027035Y0063677D01*
X0019085Y0063677D01*
X0017796Y0064211D01*
X0016453Y0063655D01*
X0008504Y0063655D01*
X0006703Y0064401D01*
X0005537Y0065567D01*
X0005547Y0061552D01*
X0006703Y0062709D01*
X0008504Y0063455D01*
X0016453Y0063455D01*
X0017742Y0062921D01*
X0019085Y0063477D01*
X0027035Y0063477D01*
X0028836Y0062731D01*
X0030214Y0061353D01*
X0030960Y0059552D01*
X0030960Y0057602D01*
X0030214Y0055801D01*
X0028836Y0054423D01*
X0027035Y0053677D01*
X0019085Y0053677D01*
X0017796Y0054211D01*
X0016453Y0053655D01*
X0008504Y0053655D01*
X0006703Y0054401D01*
X0005561Y0055543D01*
X0005570Y0051576D01*
X0006703Y0052709D01*
X0008504Y0053455D01*
X0016453Y0053455D01*
X0017742Y0052921D01*
X0019085Y0053477D01*
X0027035Y0053477D01*
X0028836Y0052731D01*
X0030214Y0051353D01*
X0030960Y0049552D01*
X0030960Y0047602D01*
X0030214Y0045801D01*
X0028836Y0044423D01*
X0027035Y0043677D01*
X0019085Y0043677D01*
X0017796Y0044211D01*
X0016453Y0043655D01*
X0008504Y0043655D01*
X0006703Y0044401D01*
X0005584Y0045519D01*
X0005593Y0041599D01*
X0006703Y0042709D01*
X0008504Y0043455D01*
X0016453Y0043455D01*
X0017742Y0042921D01*
X0019085Y0043477D01*
X0027035Y0043477D01*
X0028836Y0042731D01*
X0030214Y0041353D01*
X0030960Y0039552D01*
X0030960Y0037602D01*
X0030214Y0035801D01*
X0028836Y0034423D01*
X0027035Y0033677D01*
X0019085Y0033677D01*
X0017796Y0034211D01*
X0016453Y0033655D01*
X0008504Y0033655D01*
X0006703Y0034401D01*
X0005608Y0035496D01*
X0005617Y0031623D01*
X0006703Y0032709D01*
X0008504Y0033455D01*
X0016453Y0033455D01*
X0017742Y0032921D01*
X0019085Y0033477D01*
X0027035Y0033477D01*
X0028836Y0032731D01*
X0030214Y0031353D01*
X0030960Y0029552D01*
X0030960Y0027602D01*
X0030214Y0025801D01*
X0028836Y0024423D01*
X0027035Y0023677D01*
X0019085Y0023677D01*
X0017796Y0024211D01*
X0016453Y0023655D01*
X0008504Y0023655D01*
X0006703Y0024401D01*
X0005631Y0025472D01*
X0005640Y0021646D01*
X0006703Y0022709D01*
X0008504Y0023455D01*
X0016453Y0023455D01*
X0017742Y0022921D01*
X0019085Y0023477D01*
X0027035Y0023477D01*
X0028836Y0022731D01*
X0030214Y0021353D01*
X0030960Y0019552D01*
X0030960Y0017602D01*
X0030214Y0015801D01*
X0028836Y0014423D01*
X0027035Y0013677D01*
X0019085Y0013677D01*
X0017796Y0014211D01*
X0016453Y0013655D01*
X0008504Y0013655D01*
X0006703Y0014401D01*
X0005655Y0015449D01*
X0005656Y0014880D02*
X0006224Y0014880D01*
X0005658Y0014282D02*
X0006991Y0014282D01*
X0007610Y0013085D02*
X0005660Y0013085D01*
X0005659Y0013683D02*
X0008435Y0013683D01*
X0006480Y0012486D02*
X0005662Y0012486D01*
X0005663Y0011888D02*
X0005882Y0011888D01*
X0006056Y0022062D02*
X0005639Y0022062D01*
X0005638Y0022661D02*
X0006655Y0022661D01*
X0005637Y0023259D02*
X0008032Y0023259D01*
X0008014Y0023858D02*
X0005635Y0023858D01*
X0005634Y0024456D02*
X0006647Y0024456D01*
X0006049Y0025055D02*
X0005632Y0025055D01*
X0005617Y0031638D02*
X0005633Y0031638D01*
X0005615Y0032237D02*
X0006231Y0032237D01*
X0005614Y0032835D02*
X0007009Y0032835D01*
X0007592Y0034032D02*
X0005611Y0034032D01*
X0005613Y0033434D02*
X0008454Y0033434D01*
X0006473Y0034631D02*
X0005610Y0034631D01*
X0005608Y0035229D02*
X0005874Y0035229D01*
X0005807Y0041813D02*
X0005593Y0041813D01*
X0005592Y0042412D02*
X0006406Y0042412D01*
X0005590Y0043010D02*
X0007430Y0043010D01*
X0007170Y0044207D02*
X0005587Y0044207D01*
X0005589Y0043609D02*
X0078095Y0043609D01*
X0077683Y0044207D02*
X0028314Y0044207D01*
X0029218Y0044806D02*
X0076432Y0044806D01*
X0075833Y0045404D02*
X0029817Y0045404D01*
X0030297Y0046003D02*
X0075235Y0046003D01*
X0074961Y0046601D02*
X0030545Y0046601D01*
X0030793Y0047200D02*
X0074713Y0047200D01*
X0074465Y0047798D02*
X0030960Y0047798D01*
X0030960Y0048397D02*
X0074445Y0048397D01*
X0074445Y0048995D02*
X0030960Y0048995D01*
X0030943Y0049594D02*
X0074445Y0049594D01*
X0074608Y0050192D02*
X0030695Y0050192D01*
X0030447Y0050791D02*
X0074856Y0050791D01*
X0075104Y0051389D02*
X0030177Y0051389D01*
X0029579Y0051988D02*
X0075580Y0051988D01*
X0076179Y0052586D02*
X0028980Y0052586D01*
X0027740Y0053185D02*
X0077072Y0053185D01*
X0077261Y0054382D02*
X0028736Y0054382D01*
X0029393Y0054980D02*
X0076257Y0054980D01*
X0075659Y0055579D02*
X0029991Y0055579D01*
X0030370Y0056177D02*
X0075137Y0056177D01*
X0074889Y0056776D02*
X0030618Y0056776D01*
X0030866Y0057374D02*
X0074641Y0057374D01*
X0074445Y0057973D02*
X0030960Y0057973D01*
X0030960Y0058571D02*
X0074445Y0058571D01*
X0074445Y0059170D02*
X0030960Y0059170D01*
X0030870Y0059768D02*
X0074445Y0059768D01*
X0074681Y0060367D02*
X0030622Y0060367D01*
X0030374Y0060965D02*
X0074929Y0060965D01*
X0075176Y0061564D02*
X0030003Y0061564D01*
X0029404Y0062162D02*
X0075755Y0062162D01*
X0076354Y0062761D02*
X0028763Y0062761D01*
X0027318Y0063360D02*
X0077494Y0063360D01*
X0078284Y0063958D02*
X0027713Y0063958D01*
X0028969Y0064557D02*
X0076839Y0064557D01*
X0076082Y0065155D02*
X0029568Y0065155D01*
X0030166Y0065754D02*
X0075484Y0065754D01*
X0075064Y0066352D02*
X0030442Y0066352D01*
X0030690Y0066951D02*
X0074816Y0066951D01*
X0074568Y0067549D02*
X0030938Y0067549D01*
X0030960Y0068148D02*
X0074445Y0068148D01*
X0074445Y0068746D02*
X0030960Y0068746D01*
X0030960Y0069345D02*
X0074445Y0069345D01*
X0074505Y0069943D02*
X0030798Y0069943D01*
X0030550Y0070542D02*
X0074753Y0070542D01*
X0075001Y0071140D02*
X0030302Y0071140D01*
X0029828Y0071739D02*
X0075331Y0071739D01*
X0075930Y0072337D02*
X0029230Y0072337D01*
X0028342Y0072936D02*
X0076528Y0072936D01*
X0077915Y0073534D02*
X0005518Y0073534D01*
X0005520Y0072936D02*
X0007251Y0072936D01*
X0006331Y0072337D02*
X0005521Y0072337D01*
X0005523Y0071739D02*
X0005733Y0071739D01*
X0005517Y0074133D02*
X0007350Y0074133D01*
X0006372Y0074731D02*
X0005516Y0074731D01*
X0005514Y0075330D02*
X0005774Y0075330D01*
X0005907Y0081913D02*
X0005499Y0081913D01*
X0005497Y0082512D02*
X0006506Y0082512D01*
X0005496Y0083110D02*
X0007672Y0083110D01*
X0008373Y0083709D02*
X0005494Y0083709D01*
X0005493Y0084307D02*
X0006928Y0084307D01*
X0006198Y0084906D02*
X0005492Y0084906D01*
X0005490Y0085504D02*
X0005599Y0085504D01*
X0016584Y0083709D02*
X0019008Y0083709D01*
X0018200Y0083110D02*
X0017285Y0083110D01*
X0017607Y0074133D02*
X0017985Y0074133D01*
X0017778Y0072936D02*
X0017706Y0072936D01*
X0017185Y0063958D02*
X0018407Y0063958D01*
X0018802Y0063360D02*
X0016683Y0063360D01*
X0016764Y0053783D02*
X0018829Y0053783D01*
X0018380Y0053185D02*
X0017105Y0053185D01*
X0017787Y0044207D02*
X0017806Y0044207D01*
X0017958Y0043010D02*
X0017527Y0043010D01*
X0017365Y0034032D02*
X0018227Y0034032D01*
X0018981Y0033434D02*
X0016503Y0033434D01*
X0016943Y0023858D02*
X0018649Y0023858D01*
X0018560Y0023259D02*
X0016925Y0023259D01*
X0016522Y0013683D02*
X0019071Y0013683D01*
X0018138Y0013085D02*
X0017347Y0013085D01*
X0027049Y0013683D02*
X0078275Y0013683D01*
X0078338Y0014628D02*
X0079006Y0014522D01*
X0082045Y0014522D01*
X0082045Y0018522D01*
X0082645Y0018522D01*
X0082645Y0014522D01*
X0085683Y0014522D01*
X0086352Y0014628D01*
X0086995Y0014838D01*
X0087598Y0015145D01*
X0088146Y0015543D01*
X0088624Y0016021D01*
X0089022Y0016569D01*
X0089330Y0017172D01*
X0089539Y0017816D01*
X0089645Y0018484D01*
X0089645Y0018522D01*
X0082645Y0018522D01*
X0082645Y0019122D01*
X0089645Y0019122D01*
X0089645Y0019161D01*
X0089539Y0019829D01*
X0089330Y0020473D01*
X0089022Y0021076D01*
X0088624Y0021624D01*
X0088146Y0022102D01*
X0087598Y0022500D01*
X0086995Y0022807D01*
X0086352Y0023017D01*
X0085683Y0023122D01*
X0082645Y0023122D01*
X0082645Y0019123D01*
X0082045Y0019123D01*
X0082045Y0023122D01*
X0079006Y0023122D01*
X0078338Y0023017D01*
X0077694Y0022807D01*
X0077091Y0022500D01*
X0076543Y0022102D01*
X0076065Y0021624D01*
X0075667Y0021076D01*
X0075360Y0020473D01*
X0075151Y0019829D01*
X0075045Y0019161D01*
X0075045Y0019122D01*
X0082045Y0019122D01*
X0082045Y0018522D01*
X0075045Y0018522D01*
X0075045Y0018484D01*
X0075151Y0017816D01*
X0075360Y0017172D01*
X0075667Y0016569D01*
X0076065Y0016021D01*
X0076543Y0015543D01*
X0077091Y0015145D01*
X0077694Y0014838D01*
X0078338Y0014628D01*
X0077610Y0014880D02*
X0029293Y0014880D01*
X0029891Y0015479D02*
X0076631Y0015479D01*
X0076024Y0016077D02*
X0030328Y0016077D01*
X0030576Y0016676D02*
X0075613Y0016676D01*
X0075326Y0017274D02*
X0030824Y0017274D01*
X0030960Y0017873D02*
X0075141Y0017873D01*
X0075047Y0018471D02*
X0030960Y0018471D01*
X0030960Y0019070D02*
X0082045Y0019070D01*
X0082045Y0019668D02*
X0082645Y0019668D01*
X0082645Y0019070D02*
X0116391Y0019070D01*
X0116989Y0019668D02*
X0089564Y0019668D01*
X0089397Y0020267D02*
X0117175Y0020267D01*
X0117175Y0020865D02*
X0089130Y0020865D01*
X0088741Y0021464D02*
X0117175Y0021464D01*
X0117175Y0022062D02*
X0088186Y0022062D01*
X0087283Y0022661D02*
X0117175Y0022661D01*
X0117175Y0023259D02*
X0027560Y0023259D01*
X0027471Y0023858D02*
X0117175Y0023858D01*
X0117175Y0024456D02*
X0087608Y0024456D01*
X0088507Y0025055D02*
X0117175Y0025055D01*
X0117175Y0025653D02*
X0089105Y0025653D01*
X0089584Y0026252D02*
X0117175Y0026252D01*
X0117175Y0026850D02*
X0089836Y0026850D01*
X0090435Y0027449D02*
X0117175Y0027449D01*
X0117175Y0028047D02*
X0091033Y0028047D01*
X0091632Y0028646D02*
X0117175Y0028646D01*
X0117175Y0029244D02*
X0092230Y0029244D01*
X0092829Y0029843D02*
X0117175Y0029843D01*
X0117175Y0030441D02*
X0093427Y0030441D01*
X0094026Y0031040D02*
X0117175Y0031040D01*
X0117175Y0031638D02*
X0094624Y0031638D01*
X0095223Y0032237D02*
X0117175Y0032237D01*
X0117175Y0032835D02*
X0095821Y0032835D01*
X0096420Y0033434D02*
X0117175Y0033434D01*
X0117175Y0034032D02*
X0097019Y0034032D01*
X0097617Y0034631D02*
X0117175Y0034631D01*
X0117175Y0035229D02*
X0098216Y0035229D01*
X0098814Y0035828D02*
X0117175Y0035828D01*
X0117175Y0036427D02*
X0099413Y0036427D01*
X0100011Y0037025D02*
X0117175Y0037025D01*
X0117175Y0037624D02*
X0100610Y0037624D01*
X0101208Y0038222D02*
X0117175Y0038222D01*
X0117175Y0038821D02*
X0101807Y0038821D01*
X0102405Y0039419D02*
X0117175Y0039419D01*
X0117175Y0040018D02*
X0103004Y0040018D01*
X0103602Y0040616D02*
X0117175Y0040616D01*
X0117175Y0041215D02*
X0104201Y0041215D01*
X0104259Y0041813D02*
X0117175Y0041813D01*
X0117175Y0042412D02*
X0104259Y0042412D01*
X0104259Y0043010D02*
X0117175Y0043010D01*
X0117175Y0043609D02*
X0104259Y0043609D01*
X0104259Y0044207D02*
X0117175Y0044207D01*
X0117175Y0044806D02*
X0104259Y0044806D01*
X0104259Y0045404D02*
X0117175Y0045404D01*
X0115262Y0046003D02*
X0104259Y0046003D01*
X0104259Y0046601D02*
X0105512Y0046601D01*
X0104914Y0047200D02*
X0104259Y0047200D01*
X0104259Y0047798D02*
X0104315Y0047798D01*
X0107379Y0047798D02*
X0107979Y0047798D01*
X0107979Y0047200D02*
X0107379Y0047200D01*
X0107379Y0046601D02*
X0107979Y0046601D01*
X0107979Y0048397D02*
X0107379Y0048397D01*
X0107379Y0048995D02*
X0107979Y0048995D01*
X0107979Y0049594D02*
X0107379Y0049594D01*
X0107679Y0050233D02*
X0114079Y0056633D01*
X0119170Y0056633D01*
X0121279Y0058742D01*
X0121279Y0063833D01*
X0121704Y0064258D01*
X0121717Y0069720D01*
X0121717Y0138090D01*
X0107661Y0152147D01*
X0087394Y0152147D01*
X0086919Y0152622D01*
X0069329Y0152622D01*
X0068591Y0151885D01*
X0074445Y0149797D02*
X0074445Y0147848D01*
X0075191Y0146047D01*
X0075271Y0145967D01*
X0062058Y0132754D01*
X0056226Y0132754D01*
X0056755Y0134031D01*
X0056755Y0135851D01*
X0056059Y0137532D01*
X0054772Y0138818D01*
X0053091Y0139514D01*
X0051272Y0139514D01*
X0049591Y0138818D01*
X0048305Y0137532D01*
X0047608Y0135851D01*
X0047608Y0134031D01*
X0048138Y0132754D01*
X0044710Y0132754D01*
X0033778Y0121823D01*
X0032435Y0120479D01*
X0032435Y0106219D01*
X0028891Y0102676D01*
X0028836Y0102731D01*
X0027035Y0103477D01*
X0019085Y0103477D01*
X0017742Y0102921D01*
X0016453Y0103455D01*
X0008504Y0103455D01*
X0006703Y0102709D01*
X0005453Y0101459D01*
X0005443Y0105661D01*
X0006703Y0104401D01*
X0008504Y0103655D01*
X0016453Y0103655D01*
X0017796Y0104211D01*
X0019085Y0103677D01*
X0027035Y0103677D01*
X0028836Y0104423D01*
X0030214Y0105801D01*
X0030960Y0107602D01*
X0030960Y0109552D01*
X0030214Y0111353D01*
X0028836Y0112731D01*
X0027035Y0113477D01*
X0019085Y0113477D01*
X0017742Y0112921D01*
X0016453Y0113455D01*
X0008504Y0113455D01*
X0006703Y0112709D01*
X0005429Y0111435D01*
X0005419Y0115684D01*
X0006703Y0114401D01*
X0008504Y0113655D01*
X0016453Y0113655D01*
X0017796Y0114211D01*
X0019085Y0113677D01*
X0027035Y0113677D01*
X0028836Y0114423D01*
X0030214Y0115801D01*
X0030960Y0117602D01*
X0030960Y0119552D01*
X0030214Y0121353D01*
X0028836Y0122731D01*
X0027035Y0123477D01*
X0019085Y0123477D01*
X0017742Y0122921D01*
X0016453Y0123455D01*
X0008504Y0123455D01*
X0006703Y0122709D01*
X0005406Y0121412D01*
X0005396Y0125708D01*
X0006703Y0124401D01*
X0008504Y0123655D01*
X0016453Y0123655D01*
X0017796Y0124211D01*
X0019085Y0123677D01*
X0027035Y0123677D01*
X0028836Y0124423D01*
X0030214Y0125801D01*
X0030960Y0127602D01*
X0030960Y0129552D01*
X0030214Y0131353D01*
X0028836Y0132731D01*
X0027035Y0133477D01*
X0019085Y0133477D01*
X0017742Y0132921D01*
X0016453Y0133455D01*
X0008504Y0133455D01*
X0006703Y0132709D01*
X0005382Y0131388D01*
X0005372Y0135731D01*
X0006703Y0134401D01*
X0008504Y0133655D01*
X0016453Y0133655D01*
X0017796Y0134211D01*
X0019085Y0133677D01*
X0027035Y0133677D01*
X0028836Y0134423D01*
X0030214Y0135801D01*
X0030960Y0137602D01*
X0030960Y0139552D01*
X0030214Y0141353D01*
X0028836Y0142731D01*
X0027035Y0143477D01*
X0019085Y0143477D01*
X0017742Y0142921D01*
X0016453Y0143455D01*
X0008504Y0143455D01*
X0006703Y0142709D01*
X0005359Y0141365D01*
X0005349Y0145755D01*
X0006703Y0144401D01*
X0008504Y0143655D01*
X0016453Y0143655D01*
X0017796Y0144211D01*
X0019085Y0143677D01*
X0027035Y0143677D01*
X0028836Y0144423D01*
X0030214Y0145801D01*
X0030960Y0147602D01*
X0030960Y0149552D01*
X0030214Y0151353D01*
X0028836Y0152731D01*
X0027035Y0153477D01*
X0019085Y0153477D01*
X0017742Y0152921D01*
X0016453Y0153455D01*
X0008504Y0153455D01*
X0006703Y0152709D01*
X0005335Y0151341D01*
X0005325Y0155779D01*
X0006703Y0154401D01*
X0008504Y0153655D01*
X0016453Y0153655D01*
X0017796Y0154211D01*
X0019085Y0153677D01*
X0027035Y0153677D01*
X0028836Y0154423D01*
X0030214Y0155801D01*
X0030960Y0157602D01*
X0030960Y0159552D01*
X0030214Y0161353D01*
X0029522Y0162044D01*
X0075505Y0161912D01*
X0075191Y0161598D01*
X0074445Y0159797D01*
X0074445Y0157848D01*
X0075191Y0156047D01*
X0076569Y0154668D01*
X0078370Y0153922D01*
X0086319Y0153922D01*
X0088120Y0154668D01*
X0089499Y0156047D01*
X0090245Y0157848D01*
X0090245Y0159797D01*
X0089499Y0161598D01*
X0089224Y0161873D01*
X0121945Y0161779D01*
X0121872Y0132391D01*
X0121663Y0132895D01*
X0120341Y0134218D01*
X0119463Y0134581D01*
X0118629Y0135416D01*
X0107973Y0146072D01*
X0089509Y0146072D01*
X0090245Y0147848D01*
X0090245Y0149797D01*
X0089499Y0151598D01*
X0088120Y0152977D01*
X0086319Y0153722D01*
X0078370Y0153722D01*
X0076569Y0152977D01*
X0075191Y0151598D01*
X0074445Y0149797D01*
X0074445Y0149545D02*
X0030960Y0149545D01*
X0030960Y0148947D02*
X0074445Y0148947D01*
X0074445Y0148348D02*
X0030960Y0148348D01*
X0030960Y0147750D02*
X0074485Y0147750D01*
X0074733Y0147151D02*
X0030773Y0147151D01*
X0030525Y0146553D02*
X0074981Y0146553D01*
X0075258Y0145954D02*
X0030277Y0145954D01*
X0029768Y0145356D02*
X0074660Y0145356D01*
X0074061Y0144757D02*
X0029170Y0144757D01*
X0028197Y0144159D02*
X0073463Y0144159D01*
X0072864Y0143560D02*
X0005354Y0143560D01*
X0005355Y0142962D02*
X0007313Y0142962D01*
X0006357Y0142363D02*
X0005357Y0142363D01*
X0005358Y0141765D02*
X0005759Y0141765D01*
X0005352Y0144159D02*
X0007288Y0144159D01*
X0006347Y0144757D02*
X0005351Y0144757D01*
X0005350Y0145356D02*
X0005748Y0145356D01*
X0005933Y0151939D02*
X0005334Y0151939D01*
X0005333Y0152538D02*
X0006532Y0152538D01*
X0005331Y0153136D02*
X0007735Y0153136D01*
X0008311Y0153735D02*
X0005330Y0153735D01*
X0005328Y0154333D02*
X0006866Y0154333D01*
X0006172Y0154932D02*
X0005327Y0154932D01*
X0005326Y0155530D02*
X0005573Y0155530D01*
X0016646Y0153735D02*
X0018946Y0153735D01*
X0018262Y0153136D02*
X0017222Y0153136D01*
X0017669Y0144159D02*
X0017923Y0144159D01*
X0017841Y0142962D02*
X0017644Y0142962D01*
X0017248Y0133984D02*
X0018345Y0133984D01*
X0018864Y0133385D02*
X0016621Y0133385D01*
X0008336Y0133385D02*
X0005378Y0133385D01*
X0005379Y0132787D02*
X0006891Y0132787D01*
X0006182Y0132188D02*
X0005380Y0132188D01*
X0005382Y0131590D02*
X0005584Y0131590D01*
X0005376Y0133984D02*
X0007709Y0133984D01*
X0006521Y0134582D02*
X0005375Y0134582D01*
X0005373Y0135181D02*
X0005923Y0135181D01*
X0005499Y0125605D02*
X0005396Y0125605D01*
X0005397Y0125006D02*
X0006097Y0125006D01*
X0006696Y0124408D02*
X0005399Y0124408D01*
X0005400Y0123809D02*
X0008131Y0123809D01*
X0007914Y0123211D02*
X0005402Y0123211D01*
X0005403Y0122612D02*
X0006606Y0122612D01*
X0006008Y0122014D02*
X0005404Y0122014D01*
X0005406Y0121415D02*
X0005409Y0121415D01*
X0005420Y0115430D02*
X0005674Y0115430D01*
X0005421Y0114831D02*
X0006272Y0114831D01*
X0007108Y0114233D02*
X0005423Y0114233D01*
X0005424Y0113634D02*
X0032435Y0113634D01*
X0032435Y0113036D02*
X0028100Y0113036D01*
X0029129Y0112437D02*
X0032435Y0112437D01*
X0032435Y0111839D02*
X0029728Y0111839D01*
X0030261Y0111240D02*
X0032435Y0111240D01*
X0032435Y0110642D02*
X0030508Y0110642D01*
X0030756Y0110043D02*
X0032435Y0110043D01*
X0032435Y0109445D02*
X0030960Y0109445D01*
X0030960Y0108846D02*
X0032435Y0108846D01*
X0032435Y0108248D02*
X0030960Y0108248D01*
X0030960Y0107649D02*
X0032435Y0107649D01*
X0032435Y0107051D02*
X0030732Y0107051D01*
X0030484Y0106452D02*
X0032435Y0106452D01*
X0032069Y0105854D02*
X0030236Y0105854D01*
X0029668Y0105255D02*
X0031471Y0105255D01*
X0030872Y0104657D02*
X0029069Y0104657D01*
X0027955Y0104058D02*
X0030274Y0104058D01*
X0029675Y0103460D02*
X0027076Y0103460D01*
X0028521Y0102861D02*
X0029077Y0102861D01*
X0034603Y0096876D02*
X0074847Y0096876D01*
X0075095Y0096278D02*
X0034004Y0096278D01*
X0033406Y0095679D02*
X0075558Y0095679D01*
X0076157Y0095081D02*
X0032807Y0095081D01*
X0032209Y0094482D02*
X0077019Y0094482D01*
X0077314Y0093285D02*
X0031012Y0093285D01*
X0031610Y0093884D02*
X0088869Y0093884D01*
X0088869Y0094482D02*
X0087670Y0094482D01*
X0088532Y0095081D02*
X0088869Y0095081D01*
X0088869Y0093285D02*
X0087375Y0093285D01*
X0088410Y0092687D02*
X0088869Y0092687D01*
X0095145Y0100467D02*
X0095453Y0100467D01*
X0095242Y0101066D02*
X0096052Y0101066D01*
X0095840Y0101664D02*
X0096650Y0101664D01*
X0096439Y0102263D02*
X0103062Y0102263D01*
X0103660Y0102861D02*
X0097037Y0102861D01*
X0097636Y0103460D02*
X0104259Y0103460D01*
X0104857Y0104058D02*
X0098234Y0104058D01*
X0098833Y0104657D02*
X0105456Y0104657D01*
X0105411Y0105854D02*
X0100030Y0105854D01*
X0099431Y0105255D02*
X0121805Y0105255D01*
X0121804Y0104657D02*
X0119902Y0104657D01*
X0120500Y0104058D02*
X0121802Y0104058D01*
X0121801Y0103460D02*
X0121099Y0103460D01*
X0121697Y0102861D02*
X0121799Y0102861D01*
X0121807Y0105854D02*
X0119946Y0105854D01*
X0120545Y0106452D02*
X0121808Y0106452D01*
X0121810Y0107051D02*
X0121143Y0107051D01*
X0121742Y0107649D02*
X0121811Y0107649D01*
X0121824Y0113036D02*
X0121523Y0113036D01*
X0121826Y0113634D02*
X0120924Y0113634D01*
X0120326Y0114233D02*
X0121827Y0114233D01*
X0121829Y0114831D02*
X0119727Y0114831D01*
X0120121Y0116029D02*
X0121832Y0116029D01*
X0121833Y0116627D02*
X0120719Y0116627D01*
X0121318Y0117226D02*
X0121835Y0117226D01*
X0121830Y0115430D02*
X0106119Y0115430D01*
X0105630Y0114831D02*
X0105521Y0114831D01*
X0105032Y0114233D02*
X0104922Y0114233D01*
X0104433Y0113634D02*
X0104324Y0113634D01*
X0103835Y0113036D02*
X0103725Y0113036D01*
X0103616Y0107649D02*
X0101838Y0107649D01*
X0101235Y0107051D02*
X0104214Y0107051D01*
X0104813Y0106452D02*
X0100632Y0106452D01*
X0093115Y0113634D02*
X0086532Y0113634D01*
X0086319Y0113922D02*
X0088120Y0114668D01*
X0089499Y0116047D01*
X0090245Y0117848D01*
X0090245Y0119797D01*
X0089499Y0121598D01*
X0088120Y0122977D01*
X0086319Y0123722D01*
X0078370Y0123722D01*
X0076569Y0122977D01*
X0075191Y0121598D01*
X0074445Y0119797D01*
X0074445Y0117848D01*
X0075191Y0116047D01*
X0076569Y0114668D01*
X0078370Y0113922D01*
X0086319Y0113922D01*
X0087069Y0114233D02*
X0093714Y0114233D01*
X0094312Y0114831D02*
X0088283Y0114831D01*
X0088882Y0115430D02*
X0094911Y0115430D01*
X0095509Y0116029D02*
X0089480Y0116029D01*
X0089739Y0116627D02*
X0096108Y0116627D01*
X0096706Y0117226D02*
X0089987Y0117226D01*
X0090235Y0117824D02*
X0097305Y0117824D01*
X0097903Y0118423D02*
X0090245Y0118423D01*
X0090245Y0119021D02*
X0098502Y0119021D01*
X0099100Y0119620D02*
X0090245Y0119620D01*
X0090070Y0120218D02*
X0099699Y0120218D01*
X0100266Y0120817D02*
X0089822Y0120817D01*
X0089574Y0121415D02*
X0100266Y0121415D01*
X0100266Y0122014D02*
X0089083Y0122014D01*
X0088485Y0122612D02*
X0100266Y0122612D01*
X0100266Y0123211D02*
X0087555Y0123211D01*
X0087491Y0124408D02*
X0100266Y0124408D01*
X0100266Y0125006D02*
X0088458Y0125006D01*
X0089056Y0125605D02*
X0100266Y0125605D01*
X0100405Y0126203D02*
X0089563Y0126203D01*
X0089811Y0126802D02*
X0101004Y0126802D01*
X0101602Y0127400D02*
X0090059Y0127400D01*
X0090245Y0127999D02*
X0102201Y0127999D01*
X0102799Y0128597D02*
X0090245Y0128597D01*
X0090245Y0129196D02*
X0102979Y0129196D01*
X0102979Y0129794D02*
X0090245Y0129794D01*
X0089998Y0130393D02*
X0102979Y0130393D01*
X0102979Y0130991D02*
X0089750Y0130991D01*
X0089502Y0131590D02*
X0102979Y0131590D01*
X0102987Y0132188D02*
X0088908Y0132188D01*
X0100266Y0123809D02*
X0045739Y0123809D01*
X0046337Y0124408D02*
X0077199Y0124408D01*
X0076231Y0125006D02*
X0046936Y0125006D01*
X0045140Y0123211D02*
X0077134Y0123211D01*
X0076205Y0122612D02*
X0044542Y0122612D01*
X0043943Y0122014D02*
X0075606Y0122014D01*
X0075115Y0121415D02*
X0043345Y0121415D01*
X0042746Y0120817D02*
X0074867Y0120817D01*
X0074619Y0120218D02*
X0053608Y0120218D01*
X0054902Y0119620D02*
X0074445Y0119620D01*
X0074445Y0119021D02*
X0055500Y0119021D01*
X0056089Y0118423D02*
X0074445Y0118423D01*
X0074454Y0117824D02*
X0056337Y0117824D01*
X0056585Y0117226D02*
X0074702Y0117226D01*
X0074950Y0116627D02*
X0056778Y0116627D01*
X0056778Y0116029D02*
X0075209Y0116029D01*
X0075807Y0115430D02*
X0056778Y0115430D01*
X0056733Y0114831D02*
X0076406Y0114831D01*
X0077620Y0114233D02*
X0057065Y0114233D01*
X0057663Y0113634D02*
X0078158Y0113634D01*
X0076713Y0113036D02*
X0058262Y0113036D01*
X0058860Y0112437D02*
X0076030Y0112437D01*
X0075431Y0111839D02*
X0059459Y0111839D01*
X0060057Y0111240D02*
X0075042Y0111240D01*
X0075023Y0106452D02*
X0039451Y0106452D01*
X0039451Y0105854D02*
X0075384Y0105854D01*
X0075982Y0105255D02*
X0039451Y0105255D01*
X0039451Y0104657D02*
X0076597Y0104657D01*
X0078042Y0104058D02*
X0039451Y0104058D01*
X0039451Y0103460D02*
X0077736Y0103460D01*
X0076454Y0102861D02*
X0039451Y0102861D01*
X0039451Y0102263D02*
X0075855Y0102263D01*
X0075257Y0101664D02*
X0039391Y0101664D01*
X0038792Y0101066D02*
X0074970Y0101066D01*
X0074722Y0100467D02*
X0038194Y0100467D01*
X0037595Y0099869D02*
X0074474Y0099869D01*
X0074445Y0099270D02*
X0036997Y0099270D01*
X0036398Y0098672D02*
X0074445Y0098672D01*
X0074445Y0098073D02*
X0035800Y0098073D01*
X0035201Y0097475D02*
X0074599Y0097475D01*
X0076279Y0092687D02*
X0030413Y0092687D01*
X0029815Y0092088D02*
X0075681Y0092088D01*
X0075146Y0091490D02*
X0030077Y0091490D01*
X0030405Y0090891D02*
X0074898Y0090891D01*
X0074650Y0090293D02*
X0030653Y0090293D01*
X0030901Y0089694D02*
X0074445Y0089694D01*
X0074445Y0089096D02*
X0030960Y0089096D01*
X0030960Y0088497D02*
X0074445Y0088497D01*
X0074445Y0087898D02*
X0030960Y0087898D01*
X0030835Y0087300D02*
X0074672Y0087300D01*
X0074919Y0086701D02*
X0030587Y0086701D01*
X0030339Y0086103D02*
X0075167Y0086103D01*
X0075733Y0085504D02*
X0029917Y0085504D01*
X0029319Y0084906D02*
X0076332Y0084906D01*
X0077441Y0084307D02*
X0028556Y0084307D01*
X0027920Y0083110D02*
X0076892Y0083110D01*
X0076104Y0082512D02*
X0029055Y0082512D01*
X0029653Y0081913D02*
X0075506Y0081913D01*
X0075073Y0081315D02*
X0030230Y0081315D01*
X0030478Y0080716D02*
X0074825Y0080716D01*
X0074577Y0080118D02*
X0030726Y0080118D01*
X0030960Y0079519D02*
X0074445Y0079519D01*
X0074445Y0078921D02*
X0030960Y0078921D01*
X0030960Y0078322D02*
X0074445Y0078322D01*
X0074496Y0077724D02*
X0030960Y0077724D01*
X0030762Y0077125D02*
X0074744Y0077125D01*
X0074992Y0076527D02*
X0030514Y0076527D01*
X0030267Y0075928D02*
X0075309Y0075928D01*
X0075908Y0075330D02*
X0029742Y0075330D01*
X0029144Y0074731D02*
X0076506Y0074731D01*
X0077862Y0074133D02*
X0028135Y0074133D01*
X0027112Y0083709D02*
X0078337Y0083709D01*
X0089265Y0072936D02*
X0093214Y0072936D01*
X0093813Y0073534D02*
X0089863Y0073534D01*
X0090462Y0074133D02*
X0094411Y0074133D01*
X0095010Y0074731D02*
X0091060Y0074731D01*
X0091659Y0075330D02*
X0095608Y0075330D01*
X0096207Y0075928D02*
X0092257Y0075928D01*
X0092856Y0076527D02*
X0096805Y0076527D01*
X0097404Y0077125D02*
X0093454Y0077125D01*
X0094053Y0077724D02*
X0097586Y0077724D01*
X0097586Y0078322D02*
X0094651Y0078322D01*
X0095250Y0078921D02*
X0097586Y0078921D01*
X0097586Y0079519D02*
X0095848Y0079519D01*
X0096447Y0080118D02*
X0097586Y0080118D01*
X0097586Y0080716D02*
X0096829Y0080716D01*
X0096829Y0081315D02*
X0097586Y0081315D01*
X0097586Y0081913D02*
X0096829Y0081913D01*
X0096829Y0082512D02*
X0097586Y0082512D01*
X0097586Y0083110D02*
X0096829Y0083110D01*
X0096829Y0083709D02*
X0097586Y0083709D01*
X0097586Y0084307D02*
X0096829Y0084307D01*
X0096829Y0084906D02*
X0097586Y0084906D01*
X0097586Y0085504D02*
X0096829Y0085504D01*
X0096829Y0086103D02*
X0097586Y0086103D01*
X0097586Y0086701D02*
X0096829Y0086701D01*
X0096829Y0087300D02*
X0098055Y0087300D01*
X0098654Y0087898D02*
X0096829Y0087898D01*
X0096829Y0088497D02*
X0099252Y0088497D01*
X0099851Y0089096D02*
X0096829Y0089096D01*
X0096829Y0089694D02*
X0100449Y0089694D01*
X0101048Y0090293D02*
X0096829Y0090293D01*
X0096829Y0090891D02*
X0101646Y0090891D01*
X0102245Y0091490D02*
X0096829Y0091490D01*
X0096829Y0092088D02*
X0102843Y0092088D01*
X0103485Y0092687D02*
X0096829Y0092687D01*
X0096829Y0093285D02*
X0104084Y0093285D01*
X0104682Y0093884D02*
X0096829Y0093884D01*
X0096829Y0094482D02*
X0105281Y0094482D01*
X0105586Y0095679D02*
X0097153Y0095679D01*
X0096829Y0095081D02*
X0121780Y0095081D01*
X0121782Y0095679D02*
X0119771Y0095679D01*
X0120370Y0096278D02*
X0121783Y0096278D01*
X0121785Y0096876D02*
X0120969Y0096876D01*
X0121567Y0097475D02*
X0121786Y0097475D01*
X0121779Y0094482D02*
X0120076Y0094482D01*
X0120675Y0093884D02*
X0121777Y0093884D01*
X0121776Y0093285D02*
X0121273Y0093285D01*
X0121392Y0087300D02*
X0121761Y0087300D01*
X0121759Y0086701D02*
X0120794Y0086701D01*
X0120195Y0086103D02*
X0121758Y0086103D01*
X0121756Y0085504D02*
X0102747Y0085504D01*
X0102174Y0084906D02*
X0105705Y0084906D01*
X0105106Y0084307D02*
X0102174Y0084307D01*
X0102174Y0083709D02*
X0104508Y0083709D01*
X0103909Y0083110D02*
X0102174Y0083110D01*
X0102174Y0082512D02*
X0103311Y0082512D01*
X0102979Y0081913D02*
X0102174Y0081913D01*
X0102174Y0081315D02*
X0102979Y0081315D01*
X0102979Y0080716D02*
X0102174Y0080716D01*
X0102174Y0080118D02*
X0102979Y0080118D01*
X0102979Y0079519D02*
X0102174Y0079519D01*
X0102174Y0078921D02*
X0102979Y0078921D01*
X0102524Y0078322D02*
X0102174Y0078322D01*
X0105421Y0074731D02*
X0105530Y0074731D01*
X0106019Y0075330D02*
X0121731Y0075330D01*
X0121733Y0075928D02*
X0120021Y0075928D01*
X0120619Y0076527D02*
X0121734Y0076527D01*
X0121736Y0077125D02*
X0121218Y0077125D01*
X0121730Y0074731D02*
X0119827Y0074731D01*
X0120426Y0074133D02*
X0121728Y0074133D01*
X0121727Y0073534D02*
X0121024Y0073534D01*
X0121623Y0072936D02*
X0121725Y0072936D01*
X0121641Y0067549D02*
X0121712Y0067549D01*
X0121711Y0066951D02*
X0121043Y0066951D01*
X0120444Y0066352D02*
X0121709Y0066352D01*
X0121708Y0065754D02*
X0119846Y0065754D01*
X0120002Y0064557D02*
X0121705Y0064557D01*
X0121706Y0065155D02*
X0105844Y0065155D01*
X0105355Y0064557D02*
X0105246Y0064557D01*
X0104757Y0063958D02*
X0104647Y0063958D01*
X0104158Y0063360D02*
X0104049Y0063360D01*
X0103560Y0062761D02*
X0103450Y0062761D01*
X0102979Y0062162D02*
X0102852Y0062162D01*
X0102979Y0061564D02*
X0102253Y0061564D01*
X0101655Y0060965D02*
X0102979Y0060965D01*
X0102979Y0060367D02*
X0101056Y0060367D01*
X0100609Y0059768D02*
X0102979Y0059768D01*
X0102979Y0059170D02*
X0100609Y0059170D01*
X0100609Y0058571D02*
X0102773Y0058571D01*
X0102175Y0057973D02*
X0100609Y0057973D01*
X0100609Y0057374D02*
X0101576Y0057374D01*
X0100978Y0056776D02*
X0100609Y0056776D01*
X0099672Y0051988D02*
X0099204Y0051988D01*
X0099672Y0051389D02*
X0098605Y0051389D01*
X0098007Y0050791D02*
X0099672Y0050791D01*
X0099672Y0050192D02*
X0097408Y0050192D01*
X0096810Y0049594D02*
X0099672Y0049594D01*
X0099672Y0048995D02*
X0096211Y0048995D01*
X0095613Y0048397D02*
X0099672Y0048397D01*
X0099672Y0047798D02*
X0095014Y0047798D01*
X0094416Y0047200D02*
X0099672Y0047200D01*
X0099672Y0046601D02*
X0093817Y0046601D01*
X0093219Y0046003D02*
X0099672Y0046003D01*
X0099672Y0045404D02*
X0092620Y0045404D01*
X0092022Y0044806D02*
X0099672Y0044806D01*
X0099672Y0044207D02*
X0091423Y0044207D01*
X0090825Y0043609D02*
X0099672Y0043609D01*
X0099509Y0043010D02*
X0090226Y0043010D01*
X0089628Y0042412D02*
X0098910Y0042412D01*
X0098312Y0041813D02*
X0089284Y0041813D01*
X0089658Y0041215D02*
X0097713Y0041215D01*
X0097115Y0040616D02*
X0089905Y0040616D01*
X0090153Y0040018D02*
X0096516Y0040018D01*
X0095918Y0039419D02*
X0090245Y0039419D01*
X0090245Y0038821D02*
X0095319Y0038821D01*
X0094721Y0038222D02*
X0090245Y0038222D01*
X0090152Y0037624D02*
X0094122Y0037624D01*
X0093524Y0037025D02*
X0089904Y0037025D01*
X0089656Y0036427D02*
X0092925Y0036427D01*
X0092327Y0035828D02*
X0089280Y0035828D01*
X0088681Y0035229D02*
X0091728Y0035229D01*
X0091130Y0034631D02*
X0088030Y0034631D01*
X0086585Y0034032D02*
X0090531Y0034032D01*
X0089932Y0033434D02*
X0087016Y0033434D01*
X0088261Y0032835D02*
X0089334Y0032835D01*
X0082645Y0022661D02*
X0082045Y0022661D01*
X0082045Y0022062D02*
X0082645Y0022062D01*
X0082645Y0021464D02*
X0082045Y0021464D01*
X0082045Y0020865D02*
X0082645Y0020865D01*
X0082645Y0020267D02*
X0082045Y0020267D01*
X0082045Y0018471D02*
X0082645Y0018471D01*
X0082645Y0017873D02*
X0082045Y0017873D01*
X0082045Y0017274D02*
X0082645Y0017274D01*
X0082645Y0016676D02*
X0082045Y0016676D01*
X0082045Y0016077D02*
X0082645Y0016077D01*
X0082645Y0015479D02*
X0082045Y0015479D01*
X0082045Y0014880D02*
X0082645Y0014880D01*
X0086414Y0013683D02*
X0111004Y0013683D01*
X0110406Y0013085D02*
X0087859Y0013085D01*
X0088611Y0012486D02*
X0109807Y0012486D01*
X0109209Y0011888D02*
X0089209Y0011888D01*
X0089627Y0011289D02*
X0108610Y0011289D01*
X0111603Y0014282D02*
X0028494Y0014282D01*
X0027982Y0013085D02*
X0076830Y0013085D01*
X0076079Y0012486D02*
X0029081Y0012486D01*
X0029679Y0011888D02*
X0075480Y0011888D01*
X0075063Y0011289D02*
X0030240Y0011289D01*
X0030488Y0010691D02*
X0074815Y0010691D01*
X0074567Y0010092D02*
X0030736Y0010092D01*
X0030960Y0009494D02*
X0074445Y0009494D01*
X0074445Y0008895D02*
X0030960Y0008895D01*
X0030960Y0008296D02*
X0074445Y0008296D01*
X0074507Y0007698D02*
X0030960Y0007698D01*
X0030752Y0007099D02*
X0074755Y0007099D01*
X0075003Y0006501D02*
X0030504Y0006501D01*
X0030256Y0005902D02*
X0075335Y0005902D01*
X0075125Y0019668D02*
X0030912Y0019668D01*
X0030664Y0020267D02*
X0075293Y0020267D01*
X0075559Y0020865D02*
X0030416Y0020865D01*
X0030103Y0021464D02*
X0075949Y0021464D01*
X0076503Y0022062D02*
X0029504Y0022062D01*
X0028906Y0022661D02*
X0077406Y0022661D01*
X0077081Y0024456D02*
X0028869Y0024456D01*
X0029467Y0025055D02*
X0076183Y0025055D01*
X0075584Y0025653D02*
X0030066Y0025653D01*
X0030401Y0026252D02*
X0075106Y0026252D01*
X0074858Y0026850D02*
X0030648Y0026850D01*
X0030896Y0027449D02*
X0074610Y0027449D01*
X0074445Y0028047D02*
X0030960Y0028047D01*
X0030960Y0028646D02*
X0074445Y0028646D01*
X0074445Y0029244D02*
X0030960Y0029244D01*
X0030839Y0029843D02*
X0074464Y0029843D01*
X0074711Y0030441D02*
X0030591Y0030441D01*
X0030344Y0031040D02*
X0074959Y0031040D01*
X0075231Y0031638D02*
X0029928Y0031638D01*
X0029330Y0032237D02*
X0075829Y0032237D01*
X0076428Y0032835D02*
X0028584Y0032835D01*
X0027893Y0034032D02*
X0078104Y0034032D01*
X0077673Y0033434D02*
X0027139Y0033434D01*
X0029044Y0034631D02*
X0076660Y0034631D01*
X0076008Y0035229D02*
X0029642Y0035229D01*
X0030225Y0035828D02*
X0075409Y0035828D01*
X0075033Y0036427D02*
X0030473Y0036427D01*
X0030721Y0037025D02*
X0074785Y0037025D01*
X0074538Y0037624D02*
X0030960Y0037624D01*
X0030960Y0038222D02*
X0074445Y0038222D01*
X0074445Y0038821D02*
X0030960Y0038821D01*
X0030960Y0039419D02*
X0074445Y0039419D01*
X0074536Y0040018D02*
X0030767Y0040018D01*
X0030519Y0040616D02*
X0074784Y0040616D01*
X0075032Y0041215D02*
X0030271Y0041215D01*
X0029754Y0041813D02*
X0075406Y0041813D01*
X0076004Y0042412D02*
X0029155Y0042412D01*
X0028162Y0043010D02*
X0076650Y0043010D01*
X0084996Y0053783D02*
X0027291Y0053783D01*
X0008193Y0053783D02*
X0005565Y0053783D01*
X0005566Y0053185D02*
X0007852Y0053185D01*
X0006580Y0052586D02*
X0005568Y0052586D01*
X0005569Y0051988D02*
X0005982Y0051988D01*
X0005563Y0054382D02*
X0006748Y0054382D01*
X0006123Y0054980D02*
X0005562Y0054980D01*
X0005546Y0061564D02*
X0005558Y0061564D01*
X0005545Y0062162D02*
X0006157Y0062162D01*
X0005544Y0062761D02*
X0006829Y0062761D01*
X0005542Y0063360D02*
X0008274Y0063360D01*
X0007772Y0063958D02*
X0005541Y0063958D01*
X0005539Y0064557D02*
X0006547Y0064557D01*
X0005949Y0065155D02*
X0005538Y0065155D01*
X0005584Y0045404D02*
X0005699Y0045404D01*
X0005586Y0044806D02*
X0006298Y0044806D01*
X0005658Y0101664D02*
X0005452Y0101664D01*
X0005451Y0102263D02*
X0006257Y0102263D01*
X0005449Y0102861D02*
X0007071Y0102861D01*
X0007530Y0104058D02*
X0005447Y0104058D01*
X0005448Y0103460D02*
X0019044Y0103460D01*
X0018165Y0104058D02*
X0017427Y0104058D01*
X0017464Y0113036D02*
X0018020Y0113036D01*
X0018442Y0123211D02*
X0017042Y0123211D01*
X0016826Y0123809D02*
X0018766Y0123809D01*
X0027354Y0123809D02*
X0035765Y0123809D01*
X0036363Y0124408D02*
X0028799Y0124408D01*
X0029419Y0125006D02*
X0036962Y0125006D01*
X0037560Y0125605D02*
X0030017Y0125605D01*
X0030380Y0126203D02*
X0038159Y0126203D01*
X0038757Y0126802D02*
X0030628Y0126802D01*
X0030876Y0127400D02*
X0039356Y0127400D01*
X0039954Y0127999D02*
X0030960Y0127999D01*
X0030960Y0128597D02*
X0040553Y0128597D01*
X0041151Y0129196D02*
X0030960Y0129196D01*
X0030860Y0129794D02*
X0041750Y0129794D01*
X0042348Y0130393D02*
X0030612Y0130393D01*
X0030364Y0130991D02*
X0042947Y0130991D01*
X0043545Y0131590D02*
X0029977Y0131590D01*
X0029378Y0132188D02*
X0044144Y0132188D01*
X0047876Y0133385D02*
X0027256Y0133385D01*
X0027775Y0133984D02*
X0047628Y0133984D01*
X0047608Y0134582D02*
X0028995Y0134582D01*
X0029593Y0135181D02*
X0047608Y0135181D01*
X0047608Y0135779D02*
X0030192Y0135779D01*
X0030453Y0136378D02*
X0047827Y0136378D01*
X0048075Y0136976D02*
X0030701Y0136976D01*
X0030949Y0137575D02*
X0048348Y0137575D01*
X0048947Y0138173D02*
X0030960Y0138173D01*
X0030960Y0138772D02*
X0049545Y0138772D01*
X0050925Y0139370D02*
X0030960Y0139370D01*
X0030787Y0139969D02*
X0069273Y0139969D01*
X0068675Y0139370D02*
X0053438Y0139370D01*
X0054818Y0138772D02*
X0068076Y0138772D01*
X0067478Y0138173D02*
X0055417Y0138173D01*
X0056015Y0137575D02*
X0066879Y0137575D01*
X0066281Y0136976D02*
X0056289Y0136976D01*
X0056536Y0136378D02*
X0065682Y0136378D01*
X0065084Y0135779D02*
X0056755Y0135779D01*
X0056755Y0135181D02*
X0064485Y0135181D01*
X0063887Y0134582D02*
X0056755Y0134582D01*
X0056735Y0133984D02*
X0063288Y0133984D01*
X0062690Y0133385D02*
X0056487Y0133385D01*
X0056239Y0132787D02*
X0062091Y0132787D01*
X0068178Y0126203D02*
X0075126Y0126203D01*
X0074878Y0126802D02*
X0071654Y0126802D01*
X0072253Y0127400D02*
X0074630Y0127400D01*
X0074445Y0127999D02*
X0072851Y0127999D01*
X0073450Y0128597D02*
X0074445Y0128597D01*
X0074445Y0129196D02*
X0074048Y0129196D01*
X0075633Y0125605D02*
X0067580Y0125605D01*
X0069872Y0140567D02*
X0030539Y0140567D01*
X0030291Y0141166D02*
X0070470Y0141166D01*
X0071069Y0141765D02*
X0029802Y0141765D01*
X0029204Y0142363D02*
X0071667Y0142363D01*
X0072266Y0142962D02*
X0028279Y0142962D01*
X0030715Y0150144D02*
X0074588Y0150144D01*
X0074836Y0150742D02*
X0030467Y0150742D01*
X0030219Y0151341D02*
X0075084Y0151341D01*
X0075532Y0151939D02*
X0029627Y0151939D01*
X0029029Y0152538D02*
X0076130Y0152538D01*
X0076955Y0153136D02*
X0027858Y0153136D01*
X0027174Y0153735D02*
X0121925Y0153735D01*
X0121926Y0154333D02*
X0087311Y0154333D01*
X0088384Y0154932D02*
X0121928Y0154932D01*
X0121929Y0155530D02*
X0088982Y0155530D01*
X0089533Y0156129D02*
X0121931Y0156129D01*
X0121932Y0156727D02*
X0089780Y0156727D01*
X0090028Y0157326D02*
X0121934Y0157326D01*
X0121935Y0157924D02*
X0090245Y0157924D01*
X0090245Y0158523D02*
X0121937Y0158523D01*
X0121938Y0159121D02*
X0090245Y0159121D01*
X0090245Y0159720D02*
X0121940Y0159720D01*
X0121941Y0160318D02*
X0090029Y0160318D01*
X0089781Y0160917D02*
X0121943Y0160917D01*
X0121944Y0161515D02*
X0089533Y0161515D01*
X0087735Y0153136D02*
X0121923Y0153136D01*
X0121922Y0152538D02*
X0088559Y0152538D01*
X0089158Y0151939D02*
X0121920Y0151939D01*
X0121919Y0151341D02*
X0089605Y0151341D01*
X0089853Y0150742D02*
X0121917Y0150742D01*
X0121916Y0150144D02*
X0090101Y0150144D01*
X0090245Y0149545D02*
X0121915Y0149545D01*
X0121913Y0148947D02*
X0090245Y0148947D01*
X0090245Y0148348D02*
X0121912Y0148348D01*
X0121910Y0147750D02*
X0090204Y0147750D01*
X0089956Y0147151D02*
X0121909Y0147151D01*
X0121907Y0146553D02*
X0089708Y0146553D01*
X0077378Y0154333D02*
X0028619Y0154333D01*
X0029344Y0154932D02*
X0076306Y0154932D01*
X0075707Y0155530D02*
X0029943Y0155530D01*
X0030350Y0156129D02*
X0075157Y0156129D01*
X0074909Y0156727D02*
X0030598Y0156727D01*
X0030845Y0157326D02*
X0074661Y0157326D01*
X0074445Y0157924D02*
X0030960Y0157924D01*
X0030960Y0158523D02*
X0074445Y0158523D01*
X0074445Y0159121D02*
X0030960Y0159121D01*
X0030890Y0159720D02*
X0074445Y0159720D01*
X0074661Y0160318D02*
X0030642Y0160318D01*
X0030395Y0160917D02*
X0074908Y0160917D01*
X0075156Y0161515D02*
X0030051Y0161515D01*
X0028701Y0132787D02*
X0048124Y0132787D01*
X0050800Y0120218D02*
X0042148Y0120218D01*
X0041549Y0119620D02*
X0049507Y0119620D01*
X0048908Y0119021D02*
X0040951Y0119021D01*
X0040352Y0118423D02*
X0048320Y0118423D01*
X0048072Y0117824D02*
X0039754Y0117824D01*
X0039451Y0117226D02*
X0047824Y0117226D01*
X0047631Y0116627D02*
X0039451Y0116627D01*
X0039451Y0116029D02*
X0047631Y0116029D01*
X0047631Y0115430D02*
X0039451Y0115430D01*
X0039451Y0114831D02*
X0047676Y0114831D01*
X0047924Y0114233D02*
X0039451Y0114233D01*
X0039451Y0113634D02*
X0048172Y0113634D01*
X0048551Y0113036D02*
X0039451Y0113036D01*
X0039451Y0112437D02*
X0049149Y0112437D01*
X0049937Y0111839D02*
X0039451Y0111839D01*
X0039451Y0111240D02*
X0053570Y0111240D01*
X0054168Y0110642D02*
X0039451Y0110642D01*
X0039451Y0110043D02*
X0054767Y0110043D01*
X0055365Y0109445D02*
X0039451Y0109445D01*
X0039451Y0108846D02*
X0055964Y0108846D01*
X0056562Y0108248D02*
X0039451Y0108248D01*
X0039451Y0107649D02*
X0057161Y0107649D01*
X0057759Y0107051D02*
X0039451Y0107051D01*
X0032435Y0114233D02*
X0028377Y0114233D01*
X0029244Y0114831D02*
X0032435Y0114831D01*
X0032435Y0115430D02*
X0029843Y0115430D01*
X0030308Y0116029D02*
X0032435Y0116029D01*
X0032435Y0116627D02*
X0030556Y0116627D01*
X0030804Y0117226D02*
X0032435Y0117226D01*
X0032435Y0117824D02*
X0030960Y0117824D01*
X0030960Y0118423D02*
X0032435Y0118423D01*
X0032435Y0119021D02*
X0030960Y0119021D01*
X0030932Y0119620D02*
X0032435Y0119620D01*
X0032435Y0120218D02*
X0030684Y0120218D01*
X0030436Y0120817D02*
X0032772Y0120817D01*
X0033371Y0121415D02*
X0030152Y0121415D01*
X0029553Y0122014D02*
X0033969Y0122014D01*
X0034568Y0122612D02*
X0028955Y0122612D01*
X0027678Y0123211D02*
X0035166Y0123211D01*
X0007493Y0113036D02*
X0005426Y0113036D01*
X0005427Y0112437D02*
X0006432Y0112437D01*
X0005833Y0111839D02*
X0005428Y0111839D01*
X0005444Y0105255D02*
X0005848Y0105255D01*
X0005445Y0104657D02*
X0006447Y0104657D01*
X0086647Y0104058D02*
X0087330Y0104058D01*
X0087330Y0103460D02*
X0086953Y0103460D01*
X0089895Y0110642D02*
X0090123Y0110642D01*
X0089647Y0111240D02*
X0090721Y0111240D01*
X0091320Y0111839D02*
X0089258Y0111839D01*
X0088659Y0112437D02*
X0091918Y0112437D01*
X0092517Y0113036D02*
X0087977Y0113036D01*
X0098350Y0096876D02*
X0104389Y0096876D01*
X0104987Y0096278D02*
X0097751Y0096278D01*
X0103944Y0086701D02*
X0104563Y0086701D01*
X0105162Y0086103D02*
X0103346Y0086103D01*
X0109653Y0084906D02*
X0115705Y0084906D01*
X0115106Y0084307D02*
X0110251Y0084307D01*
X0110850Y0083709D02*
X0114508Y0083709D01*
X0113909Y0083110D02*
X0111448Y0083110D01*
X0112047Y0082512D02*
X0113311Y0082512D01*
X0112979Y0081913D02*
X0112379Y0081913D01*
X0112379Y0081315D02*
X0112979Y0081315D01*
X0112979Y0080716D02*
X0112379Y0080716D01*
X0112379Y0080118D02*
X0112979Y0080118D01*
X0112979Y0079519D02*
X0112379Y0079519D01*
X0112379Y0078921D02*
X0112979Y0078921D01*
X0112979Y0078322D02*
X0112379Y0078322D01*
X0111816Y0077724D02*
X0113541Y0077724D01*
X0114140Y0077125D02*
X0111218Y0077125D01*
X0110619Y0076527D02*
X0114738Y0076527D01*
X0115337Y0075928D02*
X0110021Y0075928D01*
X0109827Y0074731D02*
X0115530Y0074731D01*
X0114932Y0074133D02*
X0110426Y0074133D01*
X0111024Y0073534D02*
X0114333Y0073534D01*
X0113734Y0072936D02*
X0111623Y0072936D01*
X0112221Y0072337D02*
X0113136Y0072337D01*
X0112979Y0071739D02*
X0112379Y0071739D01*
X0112379Y0071140D02*
X0112979Y0071140D01*
X0112979Y0070542D02*
X0112379Y0070542D01*
X0112379Y0069943D02*
X0112979Y0069943D01*
X0112979Y0069345D02*
X0112379Y0069345D01*
X0112379Y0068746D02*
X0112979Y0068746D01*
X0113117Y0068148D02*
X0112240Y0068148D01*
X0111641Y0067549D02*
X0113716Y0067549D01*
X0114314Y0066951D02*
X0111043Y0066951D01*
X0110444Y0066352D02*
X0114913Y0066352D01*
X0115511Y0065754D02*
X0109846Y0065754D01*
X0110002Y0064557D02*
X0115355Y0064557D01*
X0114757Y0063958D02*
X0110601Y0063958D01*
X0111199Y0063360D02*
X0114158Y0063360D01*
X0113560Y0062761D02*
X0111798Y0062761D01*
X0112379Y0062162D02*
X0112979Y0062162D01*
X0112979Y0061564D02*
X0112379Y0061564D01*
X0112379Y0060965D02*
X0112979Y0060965D01*
X0112979Y0060367D02*
X0112379Y0060367D01*
X0112379Y0059768D02*
X0112979Y0059768D01*
X0112979Y0059170D02*
X0112379Y0059170D01*
X0112379Y0058571D02*
X0112979Y0058571D01*
X0113292Y0057973D02*
X0112065Y0057973D01*
X0111467Y0057374D02*
X0113891Y0057374D01*
X0114489Y0056776D02*
X0110868Y0056776D01*
X0110270Y0056177D02*
X0115088Y0056177D01*
X0115686Y0055579D02*
X0109671Y0055579D01*
X0109927Y0053783D02*
X0114582Y0053783D01*
X0113984Y0053185D02*
X0110525Y0053185D01*
X0111124Y0052586D02*
X0113385Y0052586D01*
X0112979Y0051988D02*
X0111722Y0051988D01*
X0111779Y0051389D02*
X0112979Y0051389D01*
X0112979Y0050791D02*
X0111779Y0050791D01*
X0111779Y0049594D02*
X0112979Y0049594D01*
X0112979Y0050192D02*
X0107979Y0050192D01*
X0107979Y0050791D02*
X0107379Y0050791D01*
X0107379Y0051389D02*
X0107979Y0051389D01*
X0107979Y0051988D02*
X0107379Y0051988D01*
X0107379Y0052586D02*
X0107979Y0052586D01*
X0107979Y0053185D02*
X0107379Y0053185D01*
X0107379Y0053783D02*
X0107979Y0053783D01*
X0105431Y0053783D02*
X0104473Y0053783D01*
X0104259Y0053185D02*
X0104832Y0053185D01*
X0105071Y0054382D02*
X0115181Y0054382D01*
X0112979Y0048995D02*
X0111779Y0048995D01*
X0111641Y0048397D02*
X0112979Y0048397D01*
X0113467Y0047798D02*
X0111042Y0047798D01*
X0110444Y0047200D02*
X0114065Y0047200D01*
X0114664Y0046601D02*
X0109845Y0046601D01*
X0105670Y0054980D02*
X0121681Y0054980D01*
X0121680Y0054382D02*
X0120177Y0054382D01*
X0120775Y0053783D02*
X0121678Y0053783D01*
X0121677Y0053185D02*
X0121374Y0053185D01*
X0121683Y0055579D02*
X0119671Y0055579D01*
X0120270Y0056177D02*
X0121684Y0056177D01*
X0121686Y0056776D02*
X0120868Y0056776D01*
X0121467Y0057374D02*
X0121687Y0057374D01*
X0121702Y0063360D02*
X0121199Y0063360D01*
X0121703Y0063958D02*
X0120601Y0063958D01*
X0104932Y0074133D02*
X0104822Y0074133D01*
X0104333Y0073534D02*
X0104224Y0073534D01*
X0110195Y0086103D02*
X0115162Y0086103D01*
X0114563Y0086701D02*
X0110794Y0086701D01*
X0111392Y0087300D02*
X0113965Y0087300D01*
X0113366Y0087898D02*
X0111991Y0087898D01*
X0112379Y0088497D02*
X0112979Y0088497D01*
X0112979Y0089096D02*
X0112379Y0089096D01*
X0112379Y0089694D02*
X0112979Y0089694D01*
X0112979Y0090293D02*
X0112379Y0090293D01*
X0112379Y0090891D02*
X0112979Y0090891D01*
X0112979Y0091490D02*
X0112379Y0091490D01*
X0112379Y0092088D02*
X0112979Y0092088D01*
X0113485Y0092687D02*
X0111872Y0092687D01*
X0111273Y0093285D02*
X0114084Y0093285D01*
X0114682Y0093884D02*
X0110675Y0093884D01*
X0110076Y0094482D02*
X0115281Y0094482D01*
X0115586Y0095679D02*
X0109771Y0095679D01*
X0110370Y0096278D02*
X0114987Y0096278D01*
X0114389Y0096876D02*
X0110969Y0096876D01*
X0111567Y0097475D02*
X0113790Y0097475D01*
X0113192Y0098073D02*
X0112166Y0098073D01*
X0112379Y0098672D02*
X0112979Y0098672D01*
X0112979Y0099270D02*
X0112379Y0099270D01*
X0112379Y0099869D02*
X0112979Y0099869D01*
X0112979Y0100467D02*
X0112379Y0100467D01*
X0112379Y0101066D02*
X0112979Y0101066D01*
X0112979Y0101664D02*
X0112379Y0101664D01*
X0112296Y0102263D02*
X0113062Y0102263D01*
X0113660Y0102861D02*
X0111697Y0102861D01*
X0111099Y0103460D02*
X0114259Y0103460D01*
X0114857Y0104058D02*
X0110500Y0104058D01*
X0109902Y0104657D02*
X0115456Y0104657D01*
X0115411Y0105854D02*
X0109946Y0105854D01*
X0110545Y0106452D02*
X0114813Y0106452D01*
X0114214Y0107051D02*
X0111143Y0107051D01*
X0111742Y0107649D02*
X0113616Y0107649D01*
X0113017Y0108248D02*
X0112340Y0108248D01*
X0112379Y0108846D02*
X0112979Y0108846D01*
X0112979Y0109445D02*
X0112379Y0109445D01*
X0112379Y0110043D02*
X0112979Y0110043D01*
X0112979Y0110642D02*
X0112379Y0110642D01*
X0112379Y0111240D02*
X0112979Y0111240D01*
X0112979Y0111839D02*
X0112379Y0111839D01*
X0112121Y0112437D02*
X0113236Y0112437D01*
X0113835Y0113036D02*
X0111523Y0113036D01*
X0110924Y0113634D02*
X0114433Y0113634D01*
X0115032Y0114233D02*
X0110326Y0114233D01*
X0109727Y0114831D02*
X0115630Y0114831D01*
X0115236Y0116029D02*
X0110121Y0116029D01*
X0110719Y0116627D02*
X0114638Y0116627D01*
X0114039Y0117226D02*
X0111318Y0117226D01*
X0111916Y0117824D02*
X0113441Y0117824D01*
X0112979Y0118423D02*
X0112379Y0118423D01*
X0112379Y0119021D02*
X0112979Y0119021D01*
X0112979Y0119620D02*
X0112379Y0119620D01*
X0112379Y0120218D02*
X0112979Y0120218D01*
X0112979Y0120817D02*
X0112379Y0120817D01*
X0112379Y0121415D02*
X0112979Y0121415D01*
X0112979Y0122014D02*
X0112379Y0122014D01*
X0111946Y0122612D02*
X0112980Y0122612D01*
X0112382Y0123211D02*
X0111348Y0123211D01*
X0111783Y0123809D02*
X0110749Y0123809D01*
X0111185Y0124408D02*
X0110151Y0124408D01*
X0111092Y0125006D02*
X0105696Y0125006D01*
X0105206Y0124408D02*
X0105097Y0124408D01*
X0109697Y0125605D02*
X0111092Y0125605D01*
X0111092Y0126203D02*
X0110296Y0126203D01*
X0110894Y0126802D02*
X0111092Y0126802D01*
X0119462Y0134582D02*
X0121878Y0134582D01*
X0121876Y0133984D02*
X0120575Y0133984D01*
X0121173Y0133385D02*
X0121875Y0133385D01*
X0121873Y0132787D02*
X0121708Y0132787D01*
X0121879Y0135181D02*
X0118864Y0135181D01*
X0118265Y0135779D02*
X0121881Y0135779D01*
X0121882Y0136378D02*
X0117667Y0136378D01*
X0117068Y0136976D02*
X0121884Y0136976D01*
X0121885Y0137575D02*
X0116470Y0137575D01*
X0115871Y0138173D02*
X0121886Y0138173D01*
X0121888Y0138772D02*
X0115272Y0138772D01*
X0114674Y0139370D02*
X0121889Y0139370D01*
X0121891Y0139969D02*
X0114075Y0139969D01*
X0113477Y0140567D02*
X0121892Y0140567D01*
X0121894Y0141166D02*
X0112878Y0141166D01*
X0112280Y0141765D02*
X0121895Y0141765D01*
X0121897Y0142363D02*
X0111681Y0142363D01*
X0111083Y0142962D02*
X0121898Y0142962D01*
X0121900Y0143560D02*
X0110484Y0143560D01*
X0109886Y0144159D02*
X0121901Y0144159D01*
X0121903Y0144757D02*
X0109287Y0144757D01*
X0108689Y0145356D02*
X0121904Y0145356D01*
X0121906Y0145954D02*
X0108090Y0145954D01*
X0119653Y0084906D02*
X0121755Y0084906D01*
X0121754Y0084307D02*
X0120251Y0084307D01*
X0120850Y0083709D02*
X0121752Y0083709D01*
X0121751Y0083110D02*
X0121448Y0083110D01*
X0092616Y0072337D02*
X0088760Y0072337D01*
X0089358Y0071739D02*
X0092017Y0071739D01*
X0091419Y0071140D02*
X0089688Y0071140D01*
X0089936Y0070542D02*
X0090820Y0070542D01*
X0090222Y0069943D02*
X0090184Y0069943D01*
X0089643Y0018471D02*
X0115792Y0018471D01*
X0115194Y0017873D02*
X0089548Y0017873D01*
X0089363Y0017274D02*
X0114595Y0017274D01*
X0113997Y0016676D02*
X0089077Y0016676D01*
X0088665Y0016077D02*
X0113398Y0016077D01*
X0112800Y0015479D02*
X0088058Y0015479D01*
X0087079Y0014880D02*
X0112201Y0014880D01*
D17*
X0064396Y0097281D03*
X0068591Y0151885D03*
M02*
