G75*
%MOIN*%
%OFA0B0*%
%FSLAX25Y25*%
%IPPOS*%
%LPD*%
%AMOC8*
5,1,8,0,0,1.08239X$1,22.5*
%
%ADD10C,0.06400*%
%ADD11OC8,0.06400*%
%ADD12C,0.06800*%
%ADD13C,0.06146*%
%ADD14C,0.03778*%
D10*
X0117679Y0130233D03*
D11*
X0117679Y0120233D03*
X0117679Y0110233D03*
X0117679Y0100233D03*
X0117679Y0090233D03*
X0117679Y0080233D03*
X0117679Y0070233D03*
X0117679Y0060233D03*
X0117679Y0050233D03*
X0107679Y0050233D03*
X0107679Y0060233D03*
X0107679Y0070233D03*
X0107679Y0080233D03*
X0107679Y0090233D03*
X0107679Y0100233D03*
X0107679Y0110233D03*
X0107679Y0120233D03*
X0107679Y0130233D03*
D12*
X0015478Y0008555D02*
X0009478Y0008555D01*
X0009478Y0018555D02*
X0015478Y0018555D01*
X0020060Y0018577D02*
X0026060Y0018577D01*
X0026060Y0008577D02*
X0020060Y0008577D01*
X0020060Y0028577D02*
X0026060Y0028577D01*
X0026060Y0038577D02*
X0020060Y0038577D01*
X0015478Y0038555D02*
X0009478Y0038555D01*
X0009478Y0048555D02*
X0015478Y0048555D01*
X0020060Y0048577D02*
X0026060Y0048577D01*
X0026060Y0058577D02*
X0020060Y0058577D01*
X0015478Y0058555D02*
X0009478Y0058555D01*
X0009478Y0068555D02*
X0015478Y0068555D01*
X0020060Y0068577D02*
X0026060Y0068577D01*
X0026060Y0078577D02*
X0020060Y0078577D01*
X0015478Y0078555D02*
X0009478Y0078555D01*
X0009478Y0088555D02*
X0015478Y0088555D01*
X0020060Y0088577D02*
X0026060Y0088577D01*
X0026060Y0098577D02*
X0020060Y0098577D01*
X0015478Y0098555D02*
X0009478Y0098555D01*
X0009478Y0108555D02*
X0015478Y0108555D01*
X0020060Y0108577D02*
X0026060Y0108577D01*
X0026060Y0118577D02*
X0020060Y0118577D01*
X0015478Y0118555D02*
X0009478Y0118555D01*
X0009478Y0128555D02*
X0015478Y0128555D01*
X0020060Y0128577D02*
X0026060Y0128577D01*
X0026060Y0138577D02*
X0020060Y0138577D01*
X0015478Y0138555D02*
X0009478Y0138555D01*
X0009478Y0148555D02*
X0015478Y0148555D01*
X0020060Y0148577D02*
X0026060Y0148577D01*
X0026060Y0158577D02*
X0020060Y0158577D01*
X0015478Y0158555D02*
X0009478Y0158555D01*
X0079345Y0158822D02*
X0085345Y0158822D01*
X0085345Y0148822D02*
X0079345Y0148822D01*
X0079345Y0138822D02*
X0085345Y0138822D01*
X0085345Y0128822D02*
X0079345Y0128822D01*
X0079345Y0118822D02*
X0085345Y0118822D01*
X0085345Y0108822D02*
X0079345Y0108822D01*
X0079345Y0098822D02*
X0085345Y0098822D01*
X0085345Y0088822D02*
X0079345Y0088822D01*
X0079345Y0078822D02*
X0085345Y0078822D01*
X0085345Y0068822D02*
X0079345Y0068822D01*
X0079345Y0058822D02*
X0085345Y0058822D01*
X0085345Y0048822D02*
X0079345Y0048822D01*
X0079345Y0038822D02*
X0085345Y0038822D01*
X0085345Y0028822D02*
X0079345Y0028822D01*
X0079345Y0018822D02*
X0085345Y0018822D01*
X0085345Y0008822D02*
X0079345Y0008822D01*
X0015478Y0028555D02*
X0009478Y0028555D01*
D13*
X0052204Y0115850D03*
X0052182Y0134941D03*
D14*
X0068591Y0151885D03*
X0064396Y0097281D03*
M02*
