G75*
%MOIN*%
%OFA0B0*%
%FSLAX25Y25*%
%IPPOS*%
%LPD*%
%AMOC8*
5,1,8,0,0,1.08239X$1,22.5*
%
%ADD10C,0.05600*%
%ADD11OC8,0.05600*%
%ADD12C,0.06000*%
%ADD13R,0.03937X0.04331*%
%ADD14R,0.04331X0.03937*%
%ADD15R,0.07600X0.21000*%
%ADD16C,0.05346*%
%ADD17C,0.00787*%
%ADD18C,0.00600*%
%ADD19C,0.02978*%
%ADD20C,0.01000*%
%ADD21C,0.01200*%
D10*
X0117679Y0130233D03*
D11*
X0117679Y0120233D03*
X0117679Y0110233D03*
X0117679Y0100233D03*
X0117679Y0090233D03*
X0117679Y0080233D03*
X0117679Y0070233D03*
X0117679Y0060233D03*
X0117679Y0050233D03*
X0107679Y0050233D03*
X0107679Y0060233D03*
X0107679Y0070233D03*
X0107679Y0080233D03*
X0107679Y0090233D03*
X0107679Y0100233D03*
X0107679Y0110233D03*
X0107679Y0120233D03*
X0107679Y0130233D03*
D12*
X0015478Y0008555D02*
X0009478Y0008555D01*
X0009478Y0018555D02*
X0015478Y0018555D01*
X0020060Y0018577D02*
X0026060Y0018577D01*
X0026060Y0008577D02*
X0020060Y0008577D01*
X0020060Y0028577D02*
X0026060Y0028577D01*
X0026060Y0038577D02*
X0020060Y0038577D01*
X0015478Y0038555D02*
X0009478Y0038555D01*
X0009478Y0048555D02*
X0015478Y0048555D01*
X0020060Y0048577D02*
X0026060Y0048577D01*
X0026060Y0058577D02*
X0020060Y0058577D01*
X0015478Y0058555D02*
X0009478Y0058555D01*
X0009478Y0068555D02*
X0015478Y0068555D01*
X0020060Y0068577D02*
X0026060Y0068577D01*
X0026060Y0078577D02*
X0020060Y0078577D01*
X0015478Y0078555D02*
X0009478Y0078555D01*
X0009478Y0088555D02*
X0015478Y0088555D01*
X0020060Y0088577D02*
X0026060Y0088577D01*
X0026060Y0098577D02*
X0020060Y0098577D01*
X0015478Y0098555D02*
X0009478Y0098555D01*
X0009478Y0108555D02*
X0015478Y0108555D01*
X0020060Y0108577D02*
X0026060Y0108577D01*
X0026060Y0118577D02*
X0020060Y0118577D01*
X0015478Y0118555D02*
X0009478Y0118555D01*
X0009478Y0128555D02*
X0015478Y0128555D01*
X0020060Y0128577D02*
X0026060Y0128577D01*
X0026060Y0138577D02*
X0020060Y0138577D01*
X0015478Y0138555D02*
X0009478Y0138555D01*
X0009478Y0148555D02*
X0015478Y0148555D01*
X0020060Y0148577D02*
X0026060Y0148577D01*
X0026060Y0158577D02*
X0020060Y0158577D01*
X0015478Y0158555D02*
X0009478Y0158555D01*
X0079345Y0158822D02*
X0085345Y0158822D01*
X0085345Y0148822D02*
X0079345Y0148822D01*
X0079345Y0138822D02*
X0085345Y0138822D01*
X0085345Y0128822D02*
X0079345Y0128822D01*
X0079345Y0118822D02*
X0085345Y0118822D01*
X0085345Y0108822D02*
X0079345Y0108822D01*
X0079345Y0098822D02*
X0085345Y0098822D01*
X0085345Y0088822D02*
X0079345Y0088822D01*
X0079345Y0078822D02*
X0085345Y0078822D01*
X0085345Y0068822D02*
X0079345Y0068822D01*
X0079345Y0058822D02*
X0085345Y0058822D01*
X0085345Y0048822D02*
X0079345Y0048822D01*
X0079345Y0038822D02*
X0085345Y0038822D01*
X0085345Y0028822D02*
X0079345Y0028822D01*
X0079345Y0018822D02*
X0085345Y0018822D01*
X0085345Y0008822D02*
X0079345Y0008822D01*
X0015478Y0028555D02*
X0009478Y0028555D01*
D13*
X0068654Y0101121D03*
X0068654Y0107814D03*
X0068674Y0139888D03*
X0068674Y0146581D03*
D14*
X0068640Y0134186D03*
X0068640Y0127493D03*
X0068867Y0120860D03*
X0068867Y0114167D03*
D15*
X0052211Y0106117D03*
X0052211Y0144117D03*
D16*
X0052182Y0134941D03*
X0052204Y0115850D03*
D17*
X0052211Y0115843D01*
X0052211Y0114870D01*
X0052914Y0114167D01*
X0052211Y0114870D02*
X0052211Y0108165D01*
X0052211Y0106117D01*
X0063764Y0096230D02*
X0068654Y0101121D01*
X0074167Y0094022D02*
X0048722Y0068577D01*
X0023060Y0068577D01*
X0023060Y0058577D02*
X0057452Y0058577D01*
X0072906Y0074032D01*
X0091074Y0074032D01*
X0102523Y0085481D01*
X0112926Y0085481D01*
X0117679Y0090233D01*
X0112921Y0095476D02*
X0099780Y0095476D01*
X0098326Y0094022D01*
X0074167Y0094022D01*
X0075615Y0100737D02*
X0075615Y0101650D01*
X0077570Y0103604D01*
X0103375Y0103604D01*
X0104678Y0104908D01*
X0112353Y0104908D01*
X0117679Y0110233D01*
X0117679Y0100233D02*
X0112921Y0095476D01*
X0117679Y0080233D02*
X0112568Y0075122D01*
X0100340Y0075122D01*
X0089073Y0063855D01*
X0071998Y0063855D01*
X0056720Y0048577D01*
X0023060Y0048577D01*
X0023060Y0038577D02*
X0062080Y0038577D01*
X0066377Y0042875D01*
X0086587Y0042875D01*
X0100532Y0056819D01*
X0100532Y0059946D01*
X0105094Y0064508D01*
X0111954Y0064508D01*
X0117679Y0070233D01*
X0117679Y0060233D02*
X0117679Y0055457D01*
X0113985Y0051763D01*
X0113985Y0043515D01*
X0105793Y0035323D01*
X0104056Y0034051D01*
X0068729Y0034051D01*
X0063255Y0028577D01*
X0023060Y0028577D01*
X0023060Y0078577D02*
X0053455Y0078577D01*
X0075615Y0100737D01*
X0068867Y0120860D02*
X0068640Y0121086D01*
X0068640Y0121846D01*
X0068640Y0139111D02*
X0068640Y0139854D01*
X0068674Y0139888D01*
X0068674Y0146581D02*
X0068674Y0151802D01*
D18*
X0068591Y0151885D01*
X0064396Y0097281D02*
X0063764Y0096230D01*
D19*
X0064396Y0097281D03*
X0068591Y0151885D03*
D20*
X0068674Y0139888D02*
X0068440Y0139653D01*
X0052182Y0139653D01*
X0052182Y0134941D01*
X0052182Y0144087D01*
X0052211Y0144117D01*
X0052182Y0144087D01*
X0052182Y0139653D01*
X0068640Y0139111D02*
X0068640Y0134186D01*
X0068640Y0126020D02*
X0068640Y0121846D01*
X0068867Y0114167D02*
X0068867Y0108925D01*
X0082242Y0108925D01*
X0082345Y0108822D01*
X0081688Y0108165D01*
X0067312Y0108165D01*
X0052211Y0108165D01*
X0053908Y0107814D02*
X0052211Y0106117D01*
X0053908Y0107814D02*
X0068654Y0107814D01*
X0068867Y0108026D01*
X0068867Y0108925D01*
X0068303Y0108165D02*
X0067312Y0108165D01*
X0068303Y0108165D02*
X0068654Y0107814D01*
X0081761Y0118822D02*
X0082345Y0118822D01*
D21*
X0081761Y0118822D02*
X0070904Y0118822D01*
X0068867Y0120860D01*
X0068640Y0126020D02*
X0068640Y0127493D01*
M02*
