%
M48
M72
T01C0.01378
T02C0.03346
T03C0.03600
T04C0.04000
%
T01
X64396Y97281
X68591Y151885
T02
X52182Y134941
X52204Y115850
T03
X107679Y120233
X107679Y110233
X107679Y100233
X107679Y90233
X107679Y80233
X107679Y70233
X107679Y60233
X107679Y50233
X117679Y50233
X117679Y60233
X117679Y70233
X117679Y80233
X117679Y90233
X117679Y100233
X117679Y110233
X117679Y120233
X117679Y130233
X107679Y130233
T04
X12478Y8555
X12478Y18555
X12478Y28555
X12478Y38555
X12478Y48555
X12478Y58555
X12478Y68555
X12478Y78555
X12478Y88555
X12478Y98555
X12478Y108555
X12478Y118555
X12478Y128555
X12478Y138555
X12478Y148555
X12478Y158555
X23060Y158577
X23060Y148577
X23060Y138577
X23060Y128577
X23060Y118577
X23060Y108577
X23060Y98577
X23060Y88577
X23060Y78577
X23060Y68577
X23060Y58577
X23060Y48577
X23060Y38577
X23060Y28577
X23060Y18577
X23060Y8577
X82345Y8822
X82345Y18822
X82345Y28822
X82345Y38822
X82345Y48822
X82345Y58822
X82345Y68822
X82345Y78822
X82345Y88822
X82345Y98822
X82345Y108822
X82345Y118822
X82345Y128822
X82345Y138822
X82345Y148822
X82345Y158822
M30
